<svg xmlns="http://www.w3.org/2000/svg" enable-background="new 0 0 3800 3000" viewBox="0 0 3800 3000"><path fill="#f9f5ed" d="M1816.93 356c-372.04 58.78-700.27 245.48-945.35 443.19-244.24 201.24-405.34 413.49-423.63 604.64-18.01 193.67 120.64 343.71 365.42 488.14 243.57 140.86 593.27 276.1 969.36 357.64 377.88 79.3 708.08 73.24 950.42-58.24 241.79-127.9 395.72-381.22 408.38-713.61 12.21-329.9-128.43-661.66-370.49-873.05C2529.9 389.7 2187.34 295.08 1816.93 356z"/><path fill="#e3ddd1" d="M732.05 2352.66a95.964 95.964 0 0 0-4.94-9.72c-4.75-8.09-11.04-15.55-18.29-15.67-3.59-.08-14.2-.1-28.52-.14-23.34-.04-56.49-.02-84.94.03-13.03 0-25.09.02-34.76.05-43.79-.09-136.13-.21-148.22.05-15.9.3-27.35 35.93-27.35 35.93h351.13c.01.01-1.47-4.6-4.11-10.53z"/><path fill="#d1c5b0" d="M688.05 2339.86c-10.38-.15-89.8-.06-127.45-.02-37.64-.04-117.07-.13-127.45.02-13.68.21-23.52 23.34-23.52 23.34h301.94s-9.84-23.13-23.52-23.34zM561.87 2366.3l-156.48-3.1 22.9 150.91s4.24 16.6 17.39 16.6h232.39c13.15 0 17.4-16.6 17.4-16.6l22.89-150.91-156.49 3.1z"/><path fill="#e3ddd1" d="M736.18 2363.2c0 6.31-5.13 11.44-11.46 11.44H396.49c-4.51 0-8.44-2.62-10.28-6.4-.76-1.51-1.18-3.24-1.18-5.03 0-1.99.5-3.85 1.39-5.48.52-.97 1.18-1.84 1.96-2.62 2.08-2.06 4.94-3.33 8.11-3.33h328.23c6.33-.02 11.46 5.09 11.46 11.42z"/><linearGradient id="a" x1="365.574" x2="563.298" y1="2376.362" y2="2376.362" gradientUnits="userSpaceOnUse"><stop offset=".213" stop-color="#ebeae2"/><stop offset="1" stop-color="#ebeadb"/></linearGradient><path fill="url(#a)" d="M563.19 2355.85a5.35 5.35 0 0 0-.99-2.13c-1.16-1.44-3.1-2.22-5.01-1.8l-109.48 22.71-44.43 9.22-25.17 5.22 6.33-20.42 1.77-.43c-.76-1.51-1.18-3.24-1.18-5.03 0-1.99.5-3.85 1.39-5.48l-7.19 1.75a5.09 5.09 0 0 0-3.66 3.43l-9.76 31.44a5.105 5.105 0 0 0 1.09 4.94c1.23 1.3 3.05 1.91 4.8 1.54l29.88-6.19 95.46-19.81.8-.17 61.41-12.74c.19-.07.35-.09.52-.14 2.45-.81 3.96-3.34 3.42-5.91z"/><linearGradient id="b" x1="2027.709" x2="2225.433" y1="2376.362" y2="2376.362" gradientTransform="matrix(-1 0 0 1 2783.627 0)" gradientUnits="userSpaceOnUse"><stop offset=".213" stop-color="#ebeae2"/><stop offset="1" stop-color="#ebeadb"/></linearGradient><path fill="url(#b)" d="M558.3 2355.85c.17-.8.52-1.51.99-2.13 1.16-1.44 3.1-2.22 5.01-1.8l109.48 22.71 44.44 9.22 25.17 5.22-6.33-20.42-1.77-.43c.76-1.51 1.18-3.24 1.18-5.03 0-1.99-.5-3.85-1.4-5.48l7.19 1.75a5.09 5.09 0 0 1 3.66 3.43l9.76 31.44c.54 1.72.12 3.59-1.09 4.94-1.23 1.3-3.05 1.91-4.8 1.54l-29.88-6.19-95.46-19.81-.8-.17-61.41-12.74c-.19-.07-.35-.09-.52-.14-2.45-.81-3.96-3.34-3.42-5.91z"/><path fill="#e3ddd1" d="M569.89 2504.37c0 3.31-2.88 5.98-6.44 5.98-3.54 0-6.42-2.67-6.42-5.98v-106.78c0-3.31 2.88-5.99 6.42-5.99 3.56 0 6.44 2.68 6.44 5.99v106.78zM464.46 2503.17c.47 3.28-2.02 6.28-5.56 6.7-3.52.42-6.74-1.88-7.18-5.16l-14.67-105.91c-.45-3.27 2.04-6.28 5.55-6.7 3.52-.42 6.75 1.89 7.2 5.17l14.66 105.9zM498.47 2503.87c.23 3.29-2.46 6.13-5.99 6.36-3.55.21-6.61-2.28-6.84-5.58l-7.46-106.56c-.23-3.29 2.45-6.15 5.99-6.36 3.55-.22 6.61 2.28 6.84 5.58l7.46 106.56zM534.95 2504.05c.16 3.3-2.59 6.09-6.14 6.24-3.54.15-6.56-2.4-6.71-5.7l-5.27-106.67c-.16-3.29 2.59-6.09 6.12-6.24 3.55-.15 6.56 2.4 6.72 5.7l5.28 106.67zM662.45 2503.17c-.45 3.28 2.04 6.28 5.55 6.7 3.52.42 6.75-1.88 7.2-5.16l14.67-105.91c.45-3.27-2.03-6.28-5.55-6.7-3.53-.42-6.75 1.89-7.21 5.17l-14.66 105.9zM628.44 2503.87c-.23 3.29 2.46 6.13 6 6.36 3.55.21 6.61-2.28 6.84-5.58l7.47-106.56c.23-3.29-2.46-6.15-6.01-6.36-3.54-.22-6.59 2.28-6.83 5.58l-7.47 106.56zM591.97 2504.05c-.17 3.3 2.58 6.09 6.13 6.24 3.55.15 6.55-2.4 6.72-5.7l5.27-106.67c.16-3.29-2.59-6.09-6.13-6.24-3.55-.15-6.56 2.4-6.72 5.7l-5.27 106.67z"/><path fill="#e5ded1" d="M2777.15 1022.83v1220.68c0 49.85-40.31 90.16-90.16 90.16H863.02c-42.11 0-77.56-28.79-87.28-68.03-1.98-7.02-2.88-14.4-2.88-22.14V1022.83c0-49.85 40.49-90.16 90.16-90.16h1823.96c49.86 0 90.17 40.31 90.17 90.16z"/><path fill="#fff" d="M2652.77 984.03H897.38c-40.4 0-73.15 32.75-73.15 73.15v1152.1c0 40.4 32.75 73.15 73.15 73.15h1755.39c40.4 0 73.15-32.75 73.15-73.15v-1152.1c-.01-40.4-32.76-73.15-73.15-73.15z"/><path fill="#47271f" d="m1633.32 1635.63-43.6 123.65 165.65 84.87 96.89-136.47z"/><path fill="#5e3f35" d="m1752.12 1674.72 10.48 159.24s213.03-2.85 231.95-62.72L1978 1611.95l-225.88 62.77z"/><path fill="#d1c5b0" d="M1815.41 1817.2c-1.45.02-2.86.09-4.33.09-162.52 0-245.71-110.62-249.69-337.6l-14.66-837.2h-395.81l38.67 849.57c9.59 210.64 69.45 368.85 178.44 478.12 107.13 107.48 253.06 160.53 439.07 160.53 2.64 0 5.18-.12 7.8-.14l.51-313.37z"/><path fill="#e5ded1" d="m2047.9 642.49-15.02 837.2c-3.95 220.06-81.69 330.68-233.22 337.28l-.13 313.41c177.35-3.35 317.39-56.21 421.07-160.2 108.96-109.27 168.85-267.48 178.44-478.12l38.67-849.57H2047.9z"/><path fill="#e5ded1" d="M1818.9 1817.2c-1.69.02-3.33.09-5.04.09-189.4 0-286.35-110.62-290.98-337.6l-17.09-837.2h-461.26l45.06 849.57c11.17 210.64 80.93 368.85 207.94 478.12 124.85 107.48 294.91 160.53 511.68 160.53 3.07 0 6.04-.12 9.09-.14l.6-313.37z"/><path fill="#f4ede1" d="m2089.84 642.49-17.5 837.2c-4.6 220.06-95.2 330.68-271.79 337.28l-.15 313.41c206.68-3.35 369.87-56.21 490.7-160.2 126.98-109.27 196.77-267.48 207.94-478.12l45.06-849.57h-454.26z"/><path fill="#f9f5ed" d="M1508.85 792.41h-456.37l-6.61-124.52h460.44z" opacity=".4"/><path fill="#f9f5ed" d="M2536.16 792.41h-446.58l2.55-124.52h450.63z" opacity=".55"/><path fill="#f5b501" d="M1397.67 2067.75c-2.09 43.11-38.73 76.37-81.84 74.29-43.11-2.09-76.37-38.73-74.29-81.84 2.09-43.11 38.73-76.37 81.84-74.29 43.12 2.09 76.38 38.73 74.29 81.84z"/><path fill="#f9d980" d="M1390.16 2067.4c-1.68 34.9-28.43 62.64-62.01 66.69-.02 0-.02 0-.04.01-3.87.48-7.86.64-11.92.44-38.96-1.9-69.02-35.01-67.14-73.98 1.59-32.92 25.49-59.48 56.38-65.8.02-.02.02-.02.04-.01a69.86 69.86 0 0 1 17.55-1.33c38.98 1.9 69.03 35 67.14 73.98z"/><path fill="#f9f5ed" d="M1329.81 2133.71c-.54.15-1.11.28-1.66.39-.02 0-.02 0-.04.01-3.87.48-7.86.64-11.92.44-38.96-1.9-69.02-35.01-67.14-73.98 1.59-32.92 25.49-59.48 56.38-65.8.02-.02.02-.02.04-.01.71-.09 1.43-.17 2.17-.22-30.02 6.94-53.03 33.11-54.6 65.39-1.88 38.98 28.18 72.08 67.14 73.98 3.27.14 6.48.08 9.63-.2z" opacity=".35"/><path fill="#5e3f35" d="M1340.82 2085.76c-2.71 3.8-7.05 6.64-13.03 8.54l1.44 9.03-9.76 1.55-1.39-8.7c-4.11.38-8.07.3-11.88-.24-3.81-.53-7.04-1.42-9.68-2.67l3.4-12.72c2.82 1.28 5.99 2.16 9.51 2.66 3.53.5 6.92.49 10.17-.03 6.18-.99 9.03-3.02 8.54-6.11-.26-1.63-1.34-2.69-3.22-3.2-1.89-.51-4.85-.88-8.9-1.13-4.43-.24-8.17-.66-11.21-1.26-3.04-.6-5.78-1.9-8.21-3.9-2.43-2-3.96-4.99-4.59-8.94-.74-4.66.3-8.93 3.13-12.8 2.83-3.87 7.36-6.69 13.58-8.46l-1.42-8.95 9.76-1.55 1.4 8.79c3.14-.22 6.19-.15 9.17.21 2.98.36 5.68 1.01 8.11 1.96l-3.06 12.75c-5.89-2.06-11.38-2.69-16.48-1.88-3.2.51-5.46 1.35-6.77 2.54-1.31 1.18-1.85 2.53-1.61 4.05s1.29 2.52 3.14 3c1.86.48 4.77.82 8.76 1.03 4.48.23 8.24.65 11.25 1.25 3.02.61 5.75 1.89 8.2 3.87 2.45 1.97 4 4.94 4.63 8.9.72 4.47-.28 8.62-2.98 12.41z" opacity=".3"/><path fill="#f5b501" d="M1343.33 2083.44c-2.71 3.8-7.05 6.64-13.03 8.54l1.44 9.03-9.76 1.55-1.39-8.7c-4.11.38-8.07.3-11.88-.24-3.81-.53-7.04-1.42-9.68-2.67l3.4-12.72c2.82 1.28 5.99 2.16 9.51 2.66 3.53.49 6.92.48 10.17-.03 6.18-.98 9.03-3.02 8.54-6.11-.26-1.63-1.34-2.69-3.22-3.2-1.89-.51-4.85-.88-8.9-1.13-4.43-.24-8.17-.66-11.21-1.26-3.04-.6-5.78-1.9-8.21-3.91-2.43-2-3.96-4.98-4.59-8.94-.74-4.66.3-8.93 3.13-12.8 2.83-3.87 7.36-6.69 13.58-8.46l-1.42-8.95 9.76-1.55 1.4 8.79c3.13-.22 6.19-.15 9.16.21 2.98.36 5.68 1.01 8.11 1.96l-3.06 12.75c-5.89-2.06-11.38-2.69-16.48-1.88-3.2.51-5.45 1.36-6.77 2.54-1.31 1.18-1.85 2.53-1.61 4.05s1.29 2.52 3.14 3c1.86.48 4.77.82 8.76 1.02 4.48.23 8.23.65 11.25 1.25 3.02.61 5.75 1.89 8.2 3.87 2.45 1.97 4 4.94 4.63 8.9.73 4.49-.26 8.64-2.97 12.43zM1501.46 2025.89c17.47 32.78 5.06 73.51-27.71 90.97-32.78 17.47-73.51 5.06-90.97-27.71-17.47-32.78-5.06-73.51 27.71-90.97 32.77-17.47 73.5-5.06 90.97 27.71z"/><path fill="#f9d980" d="M1495.75 2028.94c14.15 26.52 6.62 58.82-16.41 76.62-.01.01-.01.01-.03.02a59.402 59.402 0 0 1-8.61 5.58c-29.62 15.78-66.43 4.57-82.23-25.06-13.34-25.02-7.4-55.19 12.64-73.47 0-.02 0-.02.03-.02 3.66-3.35 7.8-6.29 12.38-8.72 29.64-15.79 66.45-4.58 82.23 25.05z"/><path fill="#f9f5ed" d="M1480.4 2104.54c-.34.35-.7.7-1.06 1.02-.01.01-.01.01-.03.02a59.402 59.402 0 0 1-8.61 5.58c-29.62 15.78-66.43 4.57-82.23-25.06-13.34-25.02-7.4-55.19 12.64-73.47 0-.02 0-.02.03-.02.49-.38.98-.75 1.51-1.12-19.12 18.37-24.59 47.85-11.51 72.39 15.8 29.63 52.6 40.84 82.23 25.06 2.48-1.33 4.82-2.8 7.03-4.4z" opacity=".35"/><path fill="#5e3f35" d="M1467.4 2064.27c-.32 4-2.28 8.01-5.86 12.05l5.04 6.04-6.53 5.45-4.86-5.82c-2.87 2.09-5.83 3.78-8.88 5.06-3.05 1.29-5.83 2.05-8.33 2.3l-3.1-10.89c2.65-.3 5.38-1.04 8.2-2.23 2.82-1.19 5.32-2.69 7.5-4.51 4.13-3.45 5.34-6.21 3.61-8.28-.91-1.09-2.17-1.4-3.79-.94-1.62.46-3.98 1.49-7.07 3.09-3.38 1.78-6.33 3.11-8.84 4.01-2.51.9-5.11 1.14-7.79.74-2.68-.41-5.12-1.94-7.34-4.58-2.6-3.12-3.72-6.73-3.33-10.84.39-4.11 2.49-8.19 6.31-12.24l-5-5.98 6.53-5.45 4.91 5.88c2.22-1.54 4.51-2.84 6.86-3.89 2.36-1.05 4.64-1.75 6.86-2.13l3.36 10.77c-5.26 1.07-9.6 3.03-13 5.88-2.14 1.79-3.43 3.41-3.88 4.86-.45 1.45-.25 2.69.6 3.7.85 1.02 2.06 1.29 3.65.83 1.59-.46 3.89-1.5 6.92-3.1 3.42-1.81 6.37-3.15 8.86-4.03 2.5-.88 5.08-1.14 7.77-.76 2.68.38 5.13 1.88 7.34 4.53 2.5 2.98 3.6 6.48 3.28 10.48z" opacity=".3"/><path fill="#f5b501" d="M1468.23 2061.44c-.32 4-2.28 8.01-5.86 12.05l5.04 6.04-6.53 5.45-4.86-5.82c-2.87 2.09-5.83 3.78-8.88 5.06-3.05 1.29-5.83 2.05-8.33 2.3l-3.1-10.89c2.64-.3 5.38-1.04 8.2-2.23 2.83-1.19 5.33-2.69 7.5-4.51 4.13-3.45 5.34-6.21 3.61-8.28-.91-1.09-2.17-1.4-3.79-.94-1.62.46-3.98 1.49-7.07 3.09-3.38 1.78-6.33 3.11-8.84 4.01-2.51.9-5.11 1.14-7.79.74-2.68-.41-5.12-1.94-7.34-4.59-2.6-3.12-3.72-6.73-3.33-10.84.38-4.11 2.49-8.19 6.31-12.24l-5-5.98 6.53-5.45 4.91 5.88c2.22-1.54 4.51-2.84 6.86-3.89 2.36-1.05 4.64-1.75 6.86-2.13l3.36 10.77c-5.26 1.07-9.6 3.03-13.01 5.88-2.14 1.79-3.43 3.41-3.88 4.86-.45 1.45-.25 2.69.6 3.7.85 1.02 2.06 1.29 3.65.83 1.59-.46 3.89-1.5 6.92-3.1 3.42-1.81 6.37-3.15 8.86-4.03 2.5-.88 5.08-1.14 7.77-.76 2.68.38 5.13 1.89 7.34 4.53 2.52 2.99 3.61 6.5 3.29 10.49zM1224.37 2285.7c25.32-17.01 44.3-43.52 51.04-75.74 13.7-65.5-28.29-129.69-93.79-143.39-65.5-13.7-129.69 28.29-143.39 93.79-10.4 49.7 11.3 98.64 50.98 125.34h135.16z"/><path fill="#f9d980" d="M1113.37 2285.7h86.79c31.58-13.64 56.25-41.89 63.82-78.11 12.4-59.21-25.55-117.22-84.76-129.62-9.15-1.92-18.26-2.63-27.19-2.23-.03-.03-.03-.03-.06 0-48.83 2.14-91.89 36.99-102.34 86.99-10.84 51.86 16.92 102.79 63.74 122.97z"/><path fill="#f9f5ed" d="M1113.37 2285.7h6.26c-46.82-20.18-74.58-71.11-63.74-122.97 10.26-49.05 51.87-83.49 99.52-86.81-1.15-.09-2.26-.16-3.38-.19-.03-.03-.03-.03-.06 0-48.83 2.14-91.89 36.99-102.34 86.99-10.84 51.87 16.92 102.8 63.74 122.98z" opacity=".35"/><path fill="#5e3f35" d="M1183.97 2223.68c-5.07 5.15-12.41 8.45-22.03 9.89v14.17h-15.32v-13.66c-6.39-.42-12.43-1.51-18.13-3.26-5.7-1.74-10.43-3.89-14.17-6.45l8.3-18.64c4 2.64 8.64 4.77 13.92 6.39 5.28 1.62 10.47 2.43 15.58 2.43 9.71 0 14.56-2.43 14.56-7.28 0-2.55-1.39-4.45-4.15-5.68-2.77-1.23-7.22-2.53-13.34-3.9-6.72-1.44-12.34-3-16.85-4.66-4.51-1.66-8.39-4.32-11.62-7.98-3.23-3.66-4.85-8.6-4.85-14.81 0-7.32 2.63-13.6 7.91-18.83 5.28-5.24 12.9-8.45 22.85-9.64v-14.05h15.32v13.79c4.85.43 9.52 1.27 13.98 2.55 4.47 1.28 8.45 2.94 11.94 4.98l-7.79 18.77c-8.51-4.59-16.77-6.89-24.77-6.89-5.02 0-8.68.75-10.98 2.24-2.3 1.49-3.45 3.43-3.45 5.81 0 2.38 1.36 4.18 4.08 5.36 2.73 1.19 7.11 2.42 13.15 3.7 6.81 1.45 12.45 3 16.92 4.66 4.47 1.66 8.34 4.3 11.62 7.92 3.27 3.62 4.92 8.53 4.92 14.75 0 7.06-2.54 13.17-7.6 18.32z" opacity=".3"/><path fill="#f5b501" d="M1188.39 2220.74c-5.07 5.15-12.41 8.45-22.03 9.89v14.17h-15.32v-13.66c-6.39-.42-12.43-1.51-18.13-3.26-5.7-1.74-10.43-3.89-14.17-6.45l8.3-18.64c4 2.64 8.64 4.77 13.92 6.39 5.28 1.62 10.47 2.43 15.58 2.43 9.7 0 14.56-2.43 14.56-7.28 0-2.55-1.39-4.45-4.15-5.68-2.77-1.23-7.22-2.53-13.34-3.9-6.72-1.44-12.34-3-16.85-4.66-4.51-1.66-8.39-4.32-11.62-7.98-3.24-3.66-4.85-8.6-4.85-14.81 0-7.32 2.63-13.6 7.91-18.83 5.28-5.24 12.9-8.45 22.86-9.64v-14.04h15.32v13.79c4.85.43 9.52 1.27 13.98 2.55 4.47 1.28 8.45 2.94 11.94 4.98l-7.79 18.77c-8.51-4.59-16.77-6.89-24.77-6.89-5.02 0-8.68.75-10.98 2.23-2.3 1.49-3.45 3.43-3.45 5.81 0 2.38 1.36 4.18 4.08 5.37 2.73 1.19 7.11 2.42 13.15 3.7 6.81 1.45 12.45 3 16.92 4.66 4.47 1.66 8.34 4.3 11.62 7.92 3.27 3.62 4.92 8.53 4.92 14.75-.02 7.05-2.55 13.16-7.61 18.31z"/><circle cx="1982.37" cy="2040.87" r="89.5" fill="#f5b501" transform="rotate(-68.16 1982.42 2040.925)"/><path fill="#f9d980" d="M2054.17 2078.12c-18.41 35.52-59.5 51.63-96.39 39.81-.02-.01-.02-.01-.04-.01a79.44 79.44 0 0 1-12.62-5.24c-39.65-20.58-55.12-69.4-34.55-109.07 17.37-33.51 54.93-49.74 90.1-41.56.03-.02.03-.02.04.01a80.277 80.277 0 0 1 18.9 6.99c39.67 20.59 55.15 69.4 34.56 109.07z"/><path fill="#f9f5ed" d="M1959.69 2118.32c-.64-.11-1.29-.24-1.91-.39-.02-.01-.02-.01-.04-.01a79.44 79.44 0 0 1-12.62-5.24c-39.65-20.58-55.12-69.4-34.55-109.07 17.37-33.51 54.93-49.74 90.1-41.56.03-.02.03-.02.04.01.79.24 1.57.51 2.37.8-34.56-7.11-71.01 9.13-88.06 41.99-20.57 39.67-5.09 88.49 34.55 109.07 3.33 1.72 6.7 3.18 10.12 4.4z" opacity=".35"/><path fill="#5e3f35" d="M1994.04 2073.67c-4.63 2.66-10.51 3.54-17.64 2.66l-2.82 10.08-10.9-3.04 2.71-9.72c-4.46-1.57-8.54-3.54-12.25-5.92-3.71-2.37-6.65-4.84-8.8-7.4l9.61-11.62c2.32 2.68 5.2 5.11 8.63 7.31 3.44 2.2 6.97 3.81 10.6 4.82 6.91 1.93 10.84 1.16 11.81-2.29.51-1.82-.1-3.44-1.82-4.87-1.72-1.43-4.63-3.24-8.72-5.42-4.5-2.36-8.19-4.59-11.07-6.66-2.88-2.08-5.11-4.74-6.68-7.99-1.58-3.25-1.74-7.08-.51-11.5 1.46-5.21 4.58-9.15 9.37-11.83 4.79-2.68 10.85-3.45 18.18-2.32l2.79-9.99 10.9 3.04-2.74 9.81c3.37 1.27 6.52 2.8 9.44 4.6 2.93 1.8 5.43 3.77 7.51 5.91l-9.27 11.81c-5.14-4.96-10.56-8.24-16.26-9.83-3.57-1-6.32-1.19-8.26-.59-1.93.61-3.13 1.76-3.61 3.45-.47 1.7.14 3.24 1.84 4.63 1.7 1.39 4.58 3.14 8.62 5.25 4.56 2.38 8.26 4.61 11.11 6.68 2.85 2.07 5.08 4.72 6.69 7.94 1.61 3.23 1.8 7.05.57 11.47-1.38 5.03-4.4 8.87-9.03 11.53z" opacity=".3"/><path fill="#f5b501" d="M1997.77 2072.45c-4.63 2.66-10.51 3.54-17.64 2.66l-2.82 10.08-10.9-3.04 2.72-9.72c-4.46-1.57-8.54-3.54-12.25-5.92-3.71-2.37-6.65-4.84-8.8-7.4l9.61-11.62c2.32 2.68 5.2 5.11 8.63 7.31 3.44 2.2 6.97 3.81 10.6 4.82 6.91 1.93 10.84 1.17 11.8-2.29.51-1.82-.1-3.44-1.82-4.87-1.72-1.43-4.63-3.24-8.72-5.42-4.5-2.36-8.19-4.59-11.07-6.66-2.88-2.08-5.11-4.74-6.68-7.99s-1.74-7.08-.51-11.5c1.46-5.21 4.58-9.15 9.37-11.83 4.79-2.68 10.85-3.45 18.18-2.32l2.79-9.99 10.9 3.04-2.74 9.81c3.37 1.27 6.52 2.8 9.44 4.59 2.93 1.8 5.43 3.77 7.51 5.91l-9.27 11.81c-5.14-4.96-10.56-8.24-16.26-9.83-3.57-1-6.32-1.19-8.26-.59-1.93.61-3.13 1.76-3.61 3.45-.47 1.7.14 3.24 1.84 4.63 1.7 1.39 4.58 3.14 8.62 5.25 4.56 2.38 8.26 4.61 11.11 6.68 2.85 2.07 5.08 4.72 6.69 7.94 1.61 3.23 1.8 7.05.57 11.47-1.39 5.04-4.4 8.89-9.03 11.54z"/><circle cx="2138.93" cy="2086.42" r="89.5" fill="#f5b501" transform="rotate(-12.674 2138.802 2086.334)"/><path fill="#f9d980" d="M2210.72 2123.67c-18.41 35.52-59.5 51.63-96.39 39.81-.02-.01-.02-.01-.04-.01a78.954 78.954 0 0 1-12.61-5.24c-39.65-20.58-55.12-69.4-34.55-109.07 17.37-33.5 54.94-49.74 90.1-41.56.03-.02.03-.02.04.01a80.277 80.277 0 0 1 18.9 6.99c39.67 20.59 55.14 69.4 34.55 109.07z"/><path fill="#f9f5ed" d="M2116.24 2163.87c-.64-.11-1.29-.24-1.91-.39-.02-.01-.02-.01-.04-.01a78.954 78.954 0 0 1-12.61-5.24c-39.65-20.58-55.12-69.4-34.55-109.07 17.37-33.5 54.94-49.74 90.1-41.56.03-.02.03-.02.04.01.79.24 1.57.51 2.37.8-34.56-7.11-71.01 9.13-88.06 41.99-20.57 39.67-5.1 88.49 34.55 109.07 3.32 1.72 6.7 3.18 10.11 4.4z" opacity=".35"/><path fill="#5e3f35" d="M2150.6 2119.22c-4.63 2.66-10.51 3.54-17.64 2.66l-2.82 10.08-10.9-3.04 2.71-9.72c-4.46-1.57-8.54-3.54-12.25-5.92-3.71-2.37-6.65-4.84-8.8-7.4l9.61-11.62c2.32 2.68 5.2 5.11 8.63 7.31 3.44 2.2 6.97 3.81 10.6 4.82 6.91 1.93 10.84 1.17 11.8-2.29.51-1.82-.1-3.44-1.82-4.87-1.72-1.43-4.63-3.24-8.72-5.42-4.5-2.36-8.19-4.59-11.07-6.66-2.88-2.08-5.11-4.74-6.68-7.99-1.57-3.25-1.74-7.08-.51-11.5 1.45-5.21 4.58-9.15 9.37-11.83 4.79-2.68 10.85-3.45 18.18-2.32l2.79-9.99 10.9 3.04-2.74 9.81c3.37 1.27 6.52 2.8 9.44 4.59 2.93 1.8 5.43 3.77 7.51 5.91l-9.27 11.81c-5.14-4.96-10.56-8.24-16.26-9.83-3.57-1-6.32-1.19-8.26-.59-1.93.61-3.13 1.76-3.61 3.45-.47 1.7.14 3.24 1.84 4.63 1.7 1.39 4.58 3.14 8.62 5.25 4.56 2.38 8.26 4.61 11.11 6.68 2.85 2.07 5.08 4.72 6.69 7.94 1.61 3.23 1.8 7.05.57 11.47-1.38 5.04-4.4 8.88-9.02 11.54z" opacity=".3"/><path fill="#f5b501" d="M2154.32 2118c-4.63 2.66-10.51 3.54-17.64 2.66l-2.82 10.08-10.9-3.04 2.71-9.72c-4.46-1.57-8.54-3.54-12.25-5.92-3.71-2.37-6.65-4.84-8.8-7.4l9.61-11.62c2.32 2.68 5.2 5.11 8.63 7.31 3.44 2.2 6.97 3.81 10.6 4.82 6.91 1.93 10.84 1.17 11.8-2.29.51-1.82-.1-3.44-1.82-4.87-1.72-1.43-4.63-3.24-8.72-5.42-4.5-2.36-8.19-4.59-11.06-6.66-2.88-2.08-5.11-4.74-6.68-7.99-1.57-3.25-1.74-7.08-.51-11.5 1.45-5.21 4.58-9.15 9.37-11.83 4.79-2.68 10.85-3.45 18.18-2.32l2.79-9.99 10.9 3.04-2.74 9.81c3.37 1.27 6.52 2.8 9.44 4.59 2.93 1.8 5.43 3.77 7.51 5.91l-9.27 11.81c-5.14-4.96-10.56-8.24-16.25-9.83-3.57-1-6.32-1.19-8.26-.59-1.93.61-3.13 1.75-3.61 3.45-.47 1.7.14 3.24 1.84 4.63 1.7 1.39 4.58 3.14 8.62 5.25 4.56 2.38 8.26 4.61 11.11 6.68 2.85 2.07 5.08 4.72 6.69 7.94 1.61 3.23 1.8 7.05.57 11.47-1.39 5.04-4.41 8.89-9.04 11.54z"/><path fill="#f5b501" d="M2340.92 2070.66c-1.28 49.41-42.38 88.43-91.8 87.15-49.41-1.28-88.43-42.38-87.15-91.8 1.28-49.41 42.38-88.43 91.8-87.15 49.42 1.29 88.43 42.39 87.15 91.8z"/><path fill="#f9d980" d="M2332.3 2070.45c-1.03 39.99-30.94 72.45-69.28 77.94-.02 0-.02 0-.05.01-4.42.64-8.98.94-13.63.81-44.66-1.18-79.92-38.31-78.76-82.98.97-37.73 27.66-68.76 62.86-76.77.02-.03.02-.03.05-.01a80.535 80.535 0 0 1 20.06-1.98c44.67 1.17 79.93 38.31 78.75 82.98z"/><path fill="#f9f5ed" d="M2264.91 2147.91c-.62.18-1.26.35-1.89.48-.02 0-.02 0-.05.01-4.42.64-8.98.94-13.63.81-44.66-1.18-79.92-38.31-78.76-82.98.97-37.73 27.66-68.76 62.86-76.77.02-.03.02-.03.05-.01.82-.12 1.63-.23 2.48-.31-34.19 8.72-59.87 39.26-60.84 76.26-1.15 44.67 34.11 81.81 78.76 82.98 3.74.09 7.42-.07 11.02-.47z" opacity=".35"/><path fill="#5e3f35" d="M2276.29 2092.74c-3 4.41-7.9 7.78-14.7 10.11l1.88 10.3-11.13 2.03-1.81-9.93c-4.7.54-9.23.55-13.61.03-4.38-.51-8.09-1.45-11.15-2.81l3.56-14.65c3.26 1.39 6.91 2.32 10.96 2.8 4.05.48 7.93.38 11.64-.3 7.05-1.29 10.26-3.69 9.62-7.22-.34-1.86-1.6-3.05-3.77-3.58-2.17-.53-5.58-.89-10.21-1.06-5.08-.16-9.37-.55-12.87-1.15-3.5-.61-6.67-2.03-9.5-4.26-2.84-2.23-4.66-5.61-5.48-10.12-.97-5.32.11-10.23 3.26-14.74 3.14-4.5 8.25-7.85 15.33-10.03l-1.86-10.21 11.13-2.03 1.83 10.02c3.58-.33 7.08-.33 10.5.01s6.53 1.02 9.34 2.04l-3.18 14.67c-6.79-2.21-13.1-2.79-18.92-1.73-3.65.67-6.21 1.69-7.68 3.08-1.47 1.39-2.05 2.95-1.73 4.68.32 1.73 1.54 2.85 3.68 3.36 2.14.51 5.49.82 10.05.95 5.14.15 9.44.53 12.91 1.15 3.47.62 6.63 2.02 9.49 4.22 2.86 2.2 4.7 5.55 5.53 10.07.92 5.11-.12 9.89-3.11 14.3z" opacity=".3"/><path fill="#f5b501" d="M2279.11 2090.02c-3 4.42-7.9 7.78-14.7 10.11l1.88 10.3-11.13 2.03-1.81-9.93c-4.7.54-9.23.55-13.61.03-4.38-.51-8.09-1.45-11.15-2.81l3.56-14.65c3.26 1.39 6.91 2.32 10.96 2.8 4.05.48 7.93.38 11.64-.3 7.05-1.28 10.26-3.69 9.62-7.22-.34-1.86-1.6-3.05-3.77-3.58-2.17-.53-5.58-.89-10.21-1.07-5.08-.16-9.37-.55-12.87-1.16-3.5-.61-6.67-2.03-9.5-4.26-2.84-2.23-4.66-5.61-5.49-10.12-.97-5.32.11-10.23 3.26-14.74 3.14-4.5 8.25-7.85 15.33-10.03l-1.86-10.21 11.13-2.03 1.83 10.02c3.58-.33 7.08-.33 10.5.01s6.53 1.02 9.34 2.04l-3.18 14.67c-6.79-2.21-13.1-2.79-18.92-1.73-3.65.67-6.21 1.69-7.68 3.08-1.47 1.39-2.05 2.95-1.73 4.68.32 1.73 1.54 2.85 3.68 3.36 2.14.51 5.49.82 10.05.95 5.14.15 9.44.53 12.91 1.15 3.47.62 6.63 2.02 9.49 4.22 2.86 2.2 4.7 5.55 5.53 10.07.93 5.13-.11 9.9-3.1 14.32zM1426.5 2285.7h164.61c17.85-16.5 30.95-38.49 36.31-64.09 13.7-65.5-28.29-129.69-93.79-143.39-65.5-13.7-129.69 28.29-143.39 93.79-9.03 43.15 6.13 85.74 36.26 113.69z"/><path fill="#f9d980" d="M1444.89 2285.7h127.85c21.46-15.41 37.43-38.57 43.25-66.46 12.4-59.22-25.55-117.22-84.76-129.62-9.15-1.92-18.26-2.63-27.19-2.23-.03-.03-.03-.03-.06 0-48.83 2.14-91.89 36.99-102.34 87-9.13 43.73 9.2 86.78 43.25 111.31z"/><path fill="#f9f5ed" d="M1444.89 2285.7h6.26c-34.05-24.53-52.39-67.58-43.25-111.32 10.26-49.05 51.87-83.49 99.52-86.81-1.15-.09-2.26-.16-3.38-.19-.03-.03-.03-.03-.06 0-48.83 2.14-91.89 36.99-102.34 87-9.13 43.74 9.2 86.79 43.25 111.32z" opacity=".35"/><path fill="#5e3f35" d="M1535.99 2235.33c-5.07 5.15-12.41 8.45-22.03 9.89v14.17h-15.32v-13.66c-6.39-.42-12.43-1.51-18.13-3.26-5.7-1.74-10.43-3.89-14.17-6.45l8.3-18.64c4 2.64 8.64 4.77 13.92 6.38 5.28 1.62 10.47 2.43 15.58 2.43 9.71 0 14.56-2.43 14.56-7.28 0-2.55-1.39-4.45-4.15-5.68-2.77-1.23-7.22-2.53-13.34-3.9-6.72-1.44-12.34-3-16.85-4.66-4.51-1.66-8.39-4.32-11.62-7.98-3.24-3.66-4.85-8.59-4.85-14.81 0-7.32 2.63-13.6 7.91-18.83 5.28-5.24 12.9-8.45 22.85-9.64v-14.05h15.32v13.79c4.85.43 9.52 1.27 13.98 2.55 4.47 1.28 8.45 2.94 11.94 4.98l-7.79 18.77c-8.51-4.59-16.77-6.89-24.77-6.89-5.02 0-8.68.75-10.98 2.23-2.3 1.49-3.44 3.43-3.44 5.81 0 2.38 1.36 4.17 4.08 5.36 2.73 1.19 7.11 2.42 13.15 3.7 6.81 1.45 12.45 3 16.92 4.66 4.47 1.66 8.34 4.3 11.62 7.92 3.28 3.62 4.92 8.53 4.92 14.75-.01 7.08-2.55 13.19-7.61 18.34z" opacity=".3"/><path fill="#f5b501" d="M1540.41 2232.38c-5.07 5.15-12.41 8.45-22.03 9.89v14.17h-15.32v-13.66c-6.39-.42-12.43-1.51-18.13-3.26-5.7-1.74-10.43-3.89-14.17-6.45l8.3-18.64c4 2.64 8.64 4.77 13.92 6.38 5.28 1.62 10.47 2.43 15.58 2.43 9.7 0 14.56-2.43 14.56-7.28 0-2.55-1.39-4.45-4.15-5.68-2.77-1.23-7.22-2.53-13.34-3.9-6.72-1.44-12.34-3-16.85-4.66-4.51-1.66-8.39-4.32-11.62-7.98-3.23-3.66-4.85-8.6-4.85-14.81 0-7.32 2.63-13.6 7.91-18.83 5.28-5.24 12.9-8.45 22.86-9.64v-14.05h15.32v13.79c4.85.43 9.52 1.27 13.98 2.55 4.47 1.28 8.45 2.94 11.94 4.98l-7.79 18.77c-8.51-4.59-16.77-6.89-24.77-6.89-5.02 0-8.68.75-10.98 2.23-2.3 1.49-3.44 3.43-3.44 5.81 0 2.38 1.36 4.17 4.08 5.36 2.73 1.19 7.11 2.42 13.15 3.7 6.81 1.45 12.45 3 16.92 4.66 4.47 1.66 8.34 4.3 11.62 7.92 3.28 3.62 4.92 8.53 4.92 14.75-.03 7.09-2.56 13.19-7.62 18.34zM1681.8 2285.7h154.84c20.35-16.88 35.36-40.48 41.19-68.38 13.7-65.5-28.29-129.69-93.79-143.39-65.5-13.7-129.69 28.29-143.39 93.79-9.5 45.43 7.8 90.22 41.15 117.98z"/><path fill="#f9d980" d="M1701.68 2285.7h115.03c24.68-15.22 43.31-40.13 49.7-70.75 12.4-59.22-25.55-117.22-84.76-129.62-9.15-1.92-18.26-2.63-27.19-2.23-.03-.03-.03-.03-.06 0-48.83 2.14-91.89 36.99-102.34 86.99-9.7 46.4 11.51 92.06 49.62 115.61z"/><path fill="#f9f5ed" d="M1701.68 2285.7h6.26c-38.11-23.56-59.31-69.21-49.62-115.61 10.26-49.05 51.87-83.49 99.52-86.81-1.15-.09-2.26-.16-3.38-.19-.03-.03-.03-.03-.06 0-48.83 2.14-91.89 36.99-102.34 86.99-9.7 46.41 11.51 92.07 49.62 115.62z" opacity=".35"/><path fill="#5e3f35" d="M1786.4 2231.05c-5.07 5.15-12.41 8.45-22.03 9.89v14.17h-15.32v-13.66c-6.39-.42-12.43-1.51-18.13-3.26-5.7-1.74-10.43-3.89-14.17-6.45l8.3-18.64c4 2.64 8.64 4.77 13.92 6.39 5.28 1.62 10.47 2.43 15.58 2.43 9.7 0 14.56-2.43 14.56-7.28 0-2.55-1.39-4.45-4.15-5.68-2.77-1.23-7.22-2.53-13.34-3.9-6.72-1.44-12.34-3-16.85-4.66-4.51-1.66-8.39-4.32-11.62-7.98-3.24-3.66-4.85-8.6-4.85-14.81 0-7.32 2.63-13.6 7.91-18.83 5.28-5.24 12.9-8.45 22.85-9.64v-14.05h15.32v13.79c4.85.43 9.52 1.27 13.98 2.55 4.47 1.28 8.45 2.94 11.94 4.98l-7.79 18.77c-8.51-4.59-16.77-6.89-24.77-6.89-5.02 0-8.68.75-10.98 2.24-2.3 1.49-3.45 3.43-3.45 5.81 0 2.38 1.36 4.18 4.08 5.37 2.73 1.19 7.11 2.42 13.15 3.7 6.81 1.45 12.45 3 16.92 4.66 4.47 1.66 8.34 4.3 11.62 7.92 3.28 3.62 4.92 8.53 4.92 14.75 0 7.05-2.54 13.15-7.6 18.31z" opacity=".3"/><path fill="#f5b501" d="M1790.82 2228.1c-5.07 5.15-12.41 8.45-22.03 9.89v14.17h-15.32v-13.66c-6.39-.42-12.43-1.51-18.13-3.25-5.7-1.74-10.43-3.89-14.17-6.45l8.3-18.64c4 2.64 8.64 4.77 13.92 6.39 5.28 1.62 10.47 2.43 15.58 2.43 9.7 0 14.56-2.43 14.56-7.28 0-2.55-1.39-4.45-4.15-5.68-2.77-1.23-7.22-2.53-13.34-3.9-6.72-1.44-12.34-3-16.85-4.66-4.51-1.66-8.39-4.32-11.62-7.98-3.24-3.66-4.85-8.6-4.85-14.81 0-7.32 2.63-13.6 7.91-18.83 5.28-5.24 12.9-8.45 22.86-9.64v-14.04h15.32v13.79c4.85.43 9.52 1.27 13.98 2.55 4.47 1.28 8.45 2.94 11.94 4.98l-7.79 18.77c-8.51-4.59-16.77-6.89-24.77-6.89-5.02 0-8.68.75-10.98 2.23-2.3 1.49-3.44 3.43-3.44 5.81 0 2.38 1.36 4.17 4.08 5.36 2.73 1.19 7.11 2.42 13.15 3.7 6.81 1.45 12.45 3 16.92 4.66 4.47 1.66 8.34 4.3 11.62 7.92 3.28 3.62 4.92 8.53 4.92 14.75-.03 7.05-2.56 13.16-7.62 18.31zM1320.64 2285.7h148.43c21.98-17.01 38.27-41.61 44.41-70.95 13.7-65.5-28.29-129.69-93.79-143.39-65.5-13.7-129.69 28.29-143.39 93.79-9.8 46.85 8.92 93.04 44.34 120.55z"/><path fill="#f9d980" d="M1341.71 2285.7h106.24c26.86-14.89 47.34-40.91 54.11-73.32 12.4-59.22-25.55-117.22-84.76-129.62-9.15-1.92-18.26-2.63-27.19-2.23-.03-.03-.03-.03-.06 0-48.83 2.14-91.89 36.99-102.34 86.99-10.06 48.15 13.15 95.5 54 118.18z"/><path fill="#f9f5ed" d="M1341.71 2285.7h6.26c-40.85-22.68-64.06-70.03-54.01-118.19 10.26-49.05 51.87-83.49 99.52-86.81a79.2 79.2 0 0 0-3.38-.19c-.03-.03-.03-.03-.06 0-48.83 2.14-91.89 36.99-102.34 86.99-10.05 48.17 13.16 95.52 54.01 118.2z" opacity=".35"/><path fill="#5e3f35" d="M1422.05 2228.47c-5.07 5.15-12.41 8.45-22.03 9.89v14.17h-15.32v-13.66c-6.39-.42-12.43-1.51-18.13-3.26-5.7-1.74-10.43-3.89-14.17-6.45l8.3-18.64c4 2.64 8.64 4.77 13.92 6.38 5.28 1.62 10.47 2.43 15.58 2.43 9.71 0 14.56-2.43 14.56-7.28 0-2.55-1.39-4.44-4.15-5.68-2.77-1.23-7.22-2.53-13.34-3.9-6.72-1.44-12.34-3-16.85-4.66-4.51-1.66-8.39-4.32-11.62-7.98-3.24-3.66-4.85-8.6-4.85-14.81 0-7.32 2.63-13.6 7.91-18.83 5.28-5.24 12.9-8.45 22.85-9.64v-14.04h15.32v13.79c4.85.43 9.52 1.27 13.98 2.55 4.47 1.28 8.45 2.94 11.94 4.98l-7.79 18.77c-8.51-4.59-16.77-6.89-24.77-6.89-5.02 0-8.68.75-10.98 2.23-2.3 1.49-3.45 3.43-3.45 5.81 0 2.38 1.36 4.17 4.08 5.36 2.73 1.19 7.11 2.42 13.15 3.7 6.81 1.45 12.45 3 16.92 4.66 4.47 1.66 8.34 4.3 11.62 7.92 3.28 3.62 4.92 8.53 4.92 14.75 0 7.07-2.53 13.18-7.6 18.33z" opacity=".3"/><path fill="#f5b501" d="M1426.47 2225.52c-5.07 5.15-12.41 8.45-22.03 9.89v14.17h-15.32v-13.66c-6.38-.42-12.43-1.51-18.13-3.26-5.7-1.74-10.43-3.89-14.17-6.45l8.3-18.64c4 2.64 8.64 4.77 13.92 6.39 5.28 1.62 10.47 2.43 15.58 2.43 9.7 0 14.56-2.43 14.56-7.28 0-2.55-1.39-4.45-4.15-5.68-2.77-1.23-7.22-2.53-13.34-3.9-6.72-1.44-12.34-3-16.85-4.66-4.51-1.66-8.39-4.32-11.62-7.98-3.24-3.66-4.85-8.59-4.85-14.81 0-7.32 2.63-13.6 7.91-18.83 5.28-5.24 12.9-8.45 22.85-9.64v-14.04h15.32v13.79c4.85.43 9.52 1.28 13.98 2.55 4.47 1.28 8.45 2.94 11.94 4.98l-7.79 18.77c-8.51-4.59-16.77-6.89-24.77-6.89-5.02 0-8.68.75-10.98 2.24-2.3 1.49-3.45 3.43-3.45 5.81 0 2.38 1.36 4.17 4.08 5.36 2.73 1.19 7.11 2.42 13.15 3.7 6.81 1.45 12.45 3 16.92 4.66 4.47 1.66 8.34 4.3 11.62 7.92 3.28 3.62 4.92 8.53 4.92 14.75 0 7.06-2.54 13.16-7.6 18.31z"/><path fill="#f5b501" d="M1344.87 2285.7c6.33-8.36 11.69-17.67 15.78-27.87 24.75-61.65-5.16-131.7-66.81-156.46-61.65-24.75-131.7 5.16-156.46 66.81-16.32 40.66-8.87 84.95 15.78 117.51h191.71z"/><path fill="#f9d980" d="M1329.89 2285.7c8.28-9.21 15.13-20 20.01-32.17 22.4-55.74-4.64-119.03-60.38-141.43-8.61-3.47-17.4-5.74-26.19-6.9-.02-.04-.02-.04-.06-.01-48.11-6.38-96.25 20.22-115.14 67.29-15.96 39.76-6.76 83.36 20.04 113.22h161.72z"/><path fill="#f9f5ed" d="M1173.34 2285.7c-26.06-29.83-34.86-72.84-19.09-112.13 18.54-46.17 65.19-72.62 112.35-67.6-1.11-.29-2.19-.54-3.27-.77-.02-.04-.02-.04-.06-.01-48.11-6.38-96.25 20.22-115.14 67.29-15.96 39.76-6.76 83.36 20.04 113.22h5.17z" opacity=".35"/><path fill="#5e3f35" d="M1268.89 2255.38c-5.85 4.16-13.59 6.1-23.25 5.85l-2.46 13.85-14.98-2.66 2.37-13.36c-6.17-1.52-11.89-3.63-17.16-6.33-5.27-2.69-9.52-5.61-12.73-8.76l11.35-16.79c3.45 3.28 7.62 6.16 12.5 8.66s9.82 4.19 14.81 5.08c9.49 1.68 14.65.15 15.5-4.59.44-2.5-.59-4.59-3.07-6.27-2.49-1.69-6.62-3.73-12.37-6.12-6.32-2.58-11.55-5.08-15.67-7.48-4.12-2.41-7.45-5.68-9.98-9.82-2.53-4.14-3.25-9.24-2.17-15.32 1.27-7.16 4.93-12.84 11-17.04 6.07-4.2 14.07-6.02 24.02-5.46l2.44-13.73 14.98 2.66-2.39 13.48c4.67 1.26 9.08 2.9 13.22 4.92 4.15 2.03 7.75 4.34 10.81 6.94l-10.87 17c-7.52-5.97-15.2-9.65-23.02-11.04-4.91-.87-8.62-.78-11.12.28-2.51 1.06-3.96 2.75-4.38 5.08-.41 2.33.6 4.32 3.06 5.95 2.46 1.64 6.53 3.6 12.22 5.9 6.41 2.6 11.65 5.09 15.73 7.49 4.08 2.4 7.41 5.65 9.98 9.76 2.58 4.11 3.33 9.19 2.25 15.27-1.24 6.91-4.77 12.44-10.62 16.6z" opacity=".3"/><path fill="#f5b501" d="M1273.72 2253.27c-5.85 4.16-13.6 6.1-23.25 5.85l-2.46 13.85-14.98-2.66 2.37-13.36c-6.17-1.52-11.89-3.63-17.16-6.33-5.27-2.69-9.52-5.61-12.74-8.76l11.35-16.79c3.45 3.28 7.62 6.16 12.5 8.66s9.82 4.19 14.81 5.08c9.49 1.68 14.65.15 15.5-4.59.44-2.5-.59-4.59-3.07-6.27-2.49-1.69-6.61-3.73-12.37-6.12-6.32-2.58-11.55-5.08-15.67-7.48-4.12-2.41-7.45-5.68-9.98-9.82-2.53-4.14-3.25-9.24-2.17-15.32 1.27-7.16 4.93-12.84 11-17.04 6.07-4.2 14.07-6.02 24.02-5.46l2.44-13.73 14.98 2.66-2.39 13.48c4.67 1.26 9.08 2.9 13.23 4.92 4.15 2.03 7.75 4.34 10.81 6.94l-10.87 17c-7.52-5.97-15.2-9.65-23.02-11.04-4.91-.87-8.62-.78-11.12.28-2.51 1.06-3.96 2.75-4.38 5.08-.41 2.33.6 4.32 3.06 5.95 2.46 1.64 6.53 3.6 12.22 5.9 6.41 2.6 11.65 5.09 15.73 7.49 4.08 2.4 7.41 5.65 9.98 9.76 2.57 4.11 3.33 9.19 2.25 15.27-1.24 6.91-4.78 12.44-10.62 16.6zM1715.14 2285.7c14.56-17.13 23.81-39.01 24.98-63.21 2.82-58.24-42.11-107.74-100.36-110.56-58.24-2.82-107.74 42.11-110.56 100.36-1.35 27.86 8.25 53.7 24.98 73.41h160.96z"/><path fill="#f9d980" d="M1568.06 2285.7h133.1c16.71-16.25 27.59-38.57 28.8-63.68 2.56-52.66-38.04-97.39-90.7-99.95-8.13-.4-16.08.23-23.71 1.8-.03-.02-.03-.02-.05.01-41.73 8.53-74.02 44.42-76.16 88.89-1.37 28.42 9.85 54.51 28.72 72.93z"/><path fill="#f9f5ed" d="M1568.06 2285.7h6.29c-19.41-18.46-31.01-44.92-29.62-73.79 2.11-43.62 33.2-78.96 73.76-88.34-1 .08-1.97.18-2.93.3-.03-.02-.03-.02-.05.01-41.73 8.53-74.02 44.42-76.16 88.89-1.38 28.42 9.84 54.51 28.71 72.93z" opacity=".35"/><path fill="#5e3f35" d="M1663.31 2246.82c-3.66 5.13-9.52 8.97-17.6 11.53l1.94 12.2-13.18 2.1-1.87-11.76c-5.55.51-10.9.4-16.05-.32s-9.51-1.92-13.08-3.61l4.59-17.18c3.81 1.73 8.09 2.92 12.85 3.59 4.77.67 9.34.66 13.74-.04 8.35-1.33 12.2-4.08 11.53-8.26-.35-2.2-1.8-3.64-4.35-4.32-2.55-.68-6.56-1.19-12.02-1.53-5.99-.32-11.03-.89-15.14-1.7-4.11-.81-7.81-2.57-11.09-5.27-3.29-2.71-5.35-6.73-6.2-12.08-1-6.3.4-12.06 4.23-17.29 3.82-5.23 9.94-9.04 18.35-11.43l-1.92-12.09 13.19-2.1 1.89 11.87c4.23-.3 8.36-.21 12.38.28 4.02.49 7.67 1.37 10.96 2.65l-4.13 17.22c-7.95-2.79-15.38-3.64-22.26-2.54-4.32.69-7.37 1.83-9.14 3.43-1.77 1.6-2.5 3.42-2.17 5.47.33 2.05 1.74 3.41 4.25 4.06 2.51.65 6.45 1.11 11.83 1.38 6.06.31 11.12.88 15.2 1.69 4.07.82 7.77 2.56 11.08 5.22 3.31 2.67 5.4 6.67 6.25 12.02.94 6.08-.41 11.69-4.06 16.81z" opacity=".3"/><path fill="#f5b501" d="M1666.71 2243.68c-3.65 5.13-9.52 8.97-17.6 11.53l1.94 12.2-13.19 2.1-1.87-11.76c-5.55.51-10.9.4-16.05-.32s-9.51-1.92-13.08-3.61l4.59-17.18c3.81 1.73 8.09 2.92 12.85 3.59 4.77.67 9.34.66 13.74-.04 8.35-1.33 12.2-4.08 11.53-8.26-.35-2.2-1.8-3.64-4.35-4.32-2.55-.68-6.56-1.19-12.02-1.53-5.98-.32-11.03-.89-15.14-1.7-4.11-.81-7.81-2.57-11.09-5.27-3.28-2.71-5.35-6.73-6.2-12.08-1-6.3.41-12.06 4.23-17.29 3.82-5.23 9.94-9.04 18.35-11.43l-1.92-12.09 13.18-2.1 1.89 11.87c4.24-.3 8.36-.21 12.38.28 4.02.49 7.67 1.37 10.96 2.65l-4.13 17.22c-7.95-2.79-15.38-3.64-22.26-2.54-4.32.69-7.37 1.83-9.14 3.43-1.77 1.6-2.49 3.42-2.17 5.47.33 2.05 1.74 3.41 4.25 4.06 2.51.65 6.45 1.11 11.83 1.38 6.06.31 11.12.88 15.2 1.69 4.07.82 7.77 2.56 11.08 5.22 3.31 2.67 5.4 6.67 6.25 12.02.95 6.08-.39 11.69-4.04 16.81zM2099.08 2285.7h164.61c17.85-16.5 30.95-38.49 36.31-64.09 13.7-65.5-28.29-129.69-93.79-143.39-65.5-13.7-129.7 28.29-143.39 93.79-9.02 43.15 6.14 85.74 36.26 113.69z"/><path fill="#f9d980" d="M2117.48 2285.7h127.85c21.46-15.41 37.43-38.57 43.25-66.46 12.4-59.22-25.55-117.22-84.76-129.62-9.15-1.92-18.26-2.63-27.19-2.23-.03-.03-.03-.03-.06 0-48.83 2.14-91.89 36.99-102.34 87-9.14 43.73 9.2 86.78 43.25 111.31z"/><path fill="#f9f5ed" d="M2117.48 2285.7h6.26c-34.05-24.53-52.38-67.58-43.25-111.32 10.26-49.05 51.87-83.49 99.52-86.81-1.15-.09-2.26-.16-3.38-.19-.03-.03-.03-.03-.06 0-48.83 2.14-91.89 36.99-102.34 87-9.14 43.74 9.2 86.79 43.25 111.32z" opacity=".35"/><path fill="#5e3f35" d="M2208.58 2235.33c-5.07 5.15-12.41 8.45-22.03 9.89v14.17h-15.32v-13.66c-6.39-.42-12.43-1.51-18.13-3.26-5.7-1.74-10.43-3.89-14.17-6.45l8.3-18.64c4 2.64 8.64 4.77 13.92 6.38 5.28 1.62 10.47 2.43 15.58 2.43 9.71 0 14.56-2.43 14.56-7.28 0-2.55-1.39-4.45-4.15-5.68-2.77-1.23-7.22-2.53-13.34-3.9-6.72-1.44-12.34-3-16.85-4.66-4.51-1.66-8.39-4.32-11.62-7.98-3.24-3.66-4.85-8.59-4.85-14.81 0-7.32 2.63-13.6 7.91-18.83 5.28-5.24 12.9-8.45 22.85-9.64v-14.05h15.32v13.79c4.85.43 9.52 1.27 13.98 2.55 4.47 1.28 8.45 2.94 11.94 4.98l-7.79 18.77c-8.51-4.59-16.77-6.89-24.77-6.89-5.02 0-8.68.75-10.98 2.23-2.3 1.49-3.44 3.43-3.44 5.81 0 2.38 1.36 4.17 4.08 5.36 2.73 1.19 7.11 2.42 13.15 3.7 6.81 1.45 12.45 3 16.92 4.66 4.47 1.66 8.34 4.3 11.62 7.92 3.28 3.62 4.92 8.53 4.92 14.75-.02 7.08-2.55 13.19-7.61 18.34z" opacity=".3"/><path fill="#f5b501" d="M2212.99 2232.38c-5.07 5.15-12.41 8.45-22.03 9.89v14.17h-15.32v-13.66c-6.39-.42-12.43-1.51-18.13-3.26-5.7-1.74-10.43-3.89-14.17-6.45l8.3-18.64c4 2.64 8.64 4.77 13.92 6.38 5.28 1.62 10.47 2.43 15.58 2.43 9.71 0 14.56-2.43 14.56-7.28 0-2.55-1.39-4.45-4.15-5.68-2.77-1.23-7.22-2.53-13.34-3.9-6.72-1.44-12.34-3-16.85-4.66-4.51-1.66-8.39-4.32-11.62-7.98-3.23-3.66-4.85-8.6-4.85-14.81 0-7.32 2.63-13.6 7.91-18.83 5.28-5.24 12.9-8.45 22.86-9.64v-14.05h15.32v13.79c4.85.43 9.52 1.27 13.98 2.55 4.47 1.28 8.45 2.94 11.94 4.98l-7.79 18.77c-8.51-4.59-16.77-6.89-24.77-6.89-5.02 0-8.68.75-10.98 2.23-2.3 1.49-3.44 3.43-3.44 5.81 0 2.38 1.36 4.17 4.08 5.36 2.73 1.19 7.11 2.42 13.15 3.7 6.81 1.45 12.45 3 16.92 4.66 4.47 1.66 8.34 4.3 11.62 7.92 3.28 3.62 4.92 8.53 4.92 14.75-.02 7.09-2.55 13.19-7.62 18.34zM2354.38 2285.7h154.84c20.35-16.88 35.36-40.48 41.19-68.38 13.7-65.5-28.29-129.69-93.79-143.39-65.5-13.7-129.69 28.29-143.39 93.79-9.5 45.43 7.81 90.22 41.15 117.98z"/><path fill="#f9d980" d="M2374.26 2285.7h115.03c24.68-15.22 43.31-40.13 49.7-70.75 12.4-59.22-25.55-117.22-84.76-129.62-9.15-1.92-18.26-2.63-27.19-2.23-.03-.03-.03-.03-.06 0-48.83 2.14-91.89 36.99-102.34 86.99-9.69 46.4 11.52 92.06 49.62 115.61z"/><path fill="#f9f5ed" d="M2374.26 2285.7h6.26c-38.11-23.56-59.32-69.21-49.62-115.61 10.26-49.05 51.87-83.49 99.52-86.81-1.15-.09-2.26-.16-3.38-.19-.03-.03-.03-.03-.06 0-48.83 2.14-91.89 36.99-102.34 86.99-9.69 46.41 11.52 92.07 49.62 115.62z" opacity=".35"/><path fill="#5e3f35" d="M2458.99 2231.05c-5.07 5.15-12.41 8.45-22.03 9.89v14.17h-15.32v-13.66c-6.39-.42-12.43-1.51-18.13-3.26-5.7-1.74-10.43-3.89-14.17-6.45l8.3-18.64c4 2.64 8.64 4.77 13.92 6.39 5.28 1.62 10.47 2.43 15.58 2.43 9.7 0 14.56-2.43 14.56-7.28 0-2.55-1.39-4.45-4.15-5.68-2.77-1.23-7.22-2.53-13.34-3.9-6.72-1.44-12.34-3-16.85-4.66-4.51-1.66-8.39-4.32-11.62-7.98-3.24-3.66-4.85-8.6-4.85-14.81 0-7.32 2.63-13.6 7.91-18.83 5.28-5.24 12.9-8.45 22.85-9.64v-14.05h15.32v13.79c4.85.43 9.52 1.27 13.98 2.55 4.47 1.28 8.45 2.94 11.94 4.98l-7.79 18.77c-8.51-4.59-16.77-6.89-24.77-6.89-5.02 0-8.68.75-10.98 2.24-2.3 1.49-3.44 3.43-3.44 5.81 0 2.38 1.36 4.18 4.08 5.37 2.73 1.19 7.11 2.42 13.15 3.7 6.81 1.45 12.45 3 16.92 4.66 4.47 1.66 8.34 4.3 11.62 7.92s4.92 8.53 4.92 14.75c-.02 7.05-2.55 13.15-7.61 18.31z" opacity=".3"/><path fill="#f5b501" d="M2463.4 2228.1c-5.07 5.15-12.41 8.45-22.03 9.89v14.17h-15.32v-13.66c-6.39-.42-12.43-1.51-18.13-3.25-5.7-1.74-10.43-3.89-14.17-6.45l8.3-18.64c4 2.64 8.64 4.77 13.92 6.39 5.28 1.62 10.47 2.43 15.58 2.43 9.7 0 14.56-2.43 14.56-7.28 0-2.55-1.39-4.45-4.15-5.68-2.77-1.23-7.22-2.53-13.34-3.9-6.72-1.44-12.34-3-16.85-4.66-4.51-1.66-8.39-4.32-11.62-7.98-3.23-3.66-4.85-8.6-4.85-14.81 0-7.32 2.63-13.6 7.91-18.83 5.28-5.24 12.9-8.45 22.86-9.64v-14.04h15.32v13.79c4.85.43 9.52 1.27 13.98 2.55 4.47 1.28 8.45 2.94 11.94 4.98l-7.79 18.77c-8.51-4.59-16.77-6.89-24.77-6.89-5.02 0-8.68.75-10.98 2.23-2.3 1.49-3.44 3.43-3.44 5.81 0 2.38 1.36 4.17 4.08 5.36 2.73 1.19 7.11 2.42 13.15 3.7 6.81 1.45 12.45 3 16.92 4.66 4.47 1.66 8.34 4.3 11.62 7.92 3.28 3.62 4.92 8.53 4.92 14.75-.02 7.05-2.55 13.16-7.62 18.31zM1993.23 2285.7h148.43c21.98-17.01 38.27-41.61 44.41-70.95 13.7-65.5-28.29-129.69-93.79-143.39-65.5-13.7-129.69 28.29-143.39 93.79-9.8 46.85 8.91 93.04 44.34 120.55z"/><path fill="#f9d980" d="M2014.3 2285.7h106.24c26.86-14.89 47.34-40.91 54.11-73.32 12.4-59.22-25.55-117.22-84.76-129.62-9.15-1.92-18.26-2.63-27.19-2.23-.03-.03-.03-.03-.06 0-48.83 2.14-91.89 36.99-102.34 86.99-10.06 48.15 13.15 95.5 54 118.18z"/><path fill="#f9f5ed" d="M2014.3 2285.7h6.26c-40.85-22.68-64.06-70.03-54.01-118.19 10.26-49.05 51.87-83.49 99.52-86.81a79.2 79.2 0 0 0-3.38-.19c-.03-.03-.03-.03-.06 0-48.83 2.14-91.89 36.99-102.34 86.99-10.05 48.17 13.16 95.52 54.01 118.2z" opacity=".35"/><path fill="#5e3f35" d="M2102.29 2221.06c-3.78 6.16-10.2 11.01-19.25 14.58l3.17 13.81-14.93 3.43-3.06-13.32c-6.32 1.02-12.45 1.31-18.4.89-5.95-.42-11.03-1.46-15.25-3.11l3.91-20.03c4.49 1.68 9.49 2.71 14.99 3.11 5.51.39 10.75.02 15.73-1.12 9.46-2.17 13.64-5.63 12.56-10.36-.57-2.49-2.35-4.02-5.32-4.61-2.97-.58-7.6-.85-13.88-.81-6.88.1-12.7-.16-17.47-.76-4.77-.61-9.14-2.33-13.11-5.17-3.97-2.84-6.65-7.29-8.04-13.35-1.64-7.13-.48-13.84 3.49-20.13 3.97-6.28 10.68-11.12 20.11-14.52l-3.15-13.69 14.93-3.43 3.09 13.44c4.82-.67 9.56-.89 14.2-.64 4.64.25 8.89.97 12.75 2.18l-3.39 20.04c-9.32-2.57-17.89-2.96-25.69-1.17-4.89 1.12-8.29 2.67-10.2 4.64-1.91 1.97-2.59 4.11-2.06 6.43.53 2.32 2.26 3.76 5.18 4.31 2.92.55 7.47.77 13.65.66 6.96-.11 12.8.14 17.53.75 4.73.62 9.09 2.32 13.1 5.12 4 2.79 6.7 7.21 8.09 13.27 1.6 6.89.5 13.41-3.28 19.56z" opacity=".3"/><path fill="#f5b501" d="M2105.94 2217.2c-3.78 6.16-10.2 11.01-19.25 14.58l3.17 13.81-14.93 3.43-3.06-13.32c-6.32 1.02-12.45 1.31-18.4.89-5.95-.42-11.03-1.46-15.25-3.11l3.91-20.03c4.49 1.68 9.49 2.72 14.99 3.11 5.51.39 10.75.02 15.73-1.12 9.46-2.17 13.64-5.63 12.56-10.36-.57-2.49-2.35-4.02-5.32-4.61-2.97-.58-7.6-.85-13.88-.81-6.88.1-12.7-.16-17.47-.77s-9.14-2.33-13.11-5.17c-3.97-2.84-6.65-7.29-8.04-13.35-1.64-7.13-.48-13.84 3.49-20.13 3.97-6.28 10.68-11.12 20.11-14.52l-3.15-13.69 14.93-3.43 3.09 13.44c4.83-.67 9.56-.89 14.2-.64 4.64.25 8.89.97 12.75 2.18l-3.39 20.04c-9.32-2.57-17.89-2.96-25.69-1.17-4.89 1.12-8.29 2.67-10.2 4.64-1.91 1.97-2.59 4.11-2.06 6.43.53 2.32 2.26 3.76 5.18 4.31 2.93.55 7.47.77 13.65.66 6.96-.11 12.8.14 17.53.75 4.73.62 9.09 2.32 13.1 5.12 4 2.79 6.7 7.21 8.09 13.27 1.6 6.9.5 13.42-3.28 19.57z"/><path fill="#f5b501" d="M2017.46 2285.7c6.33-8.36 11.69-17.67 15.78-27.87 24.76-61.65-5.16-131.7-66.81-156.46-61.65-24.75-131.7 5.16-156.46 66.81-16.32 40.66-8.87 84.95 15.78 117.51h191.71z"/><path fill="#f9d980" d="M2002.48 2285.7c8.28-9.21 15.13-20 20.01-32.17 22.4-55.74-4.64-119.03-60.38-141.43-8.61-3.47-17.39-5.74-26.19-6.9-.03-.04-.03-.04-.06-.01-48.11-6.38-96.25 20.22-115.14 67.29-15.96 39.76-6.76 83.36 20.04 113.22h161.72z"/><path fill="#f9f5ed" d="M1845.93 2285.7c-26.06-29.83-34.86-72.84-19.09-112.13 18.54-46.17 65.19-72.62 112.35-67.6-1.11-.29-2.19-.54-3.27-.77-.03-.04-.03-.04-.06-.01-48.11-6.38-96.25 20.22-115.14 67.29-15.96 39.76-6.76 83.36 20.04 113.22h5.17z" opacity=".35"/><path fill="#5e3f35" d="M1941.48 2255.38c-5.85 4.16-13.59 6.1-23.25 5.85l-2.46 13.85-14.98-2.66 2.37-13.36c-6.17-1.52-11.89-3.63-17.16-6.33-5.27-2.69-9.52-5.61-12.74-8.76l11.35-16.79c3.45 3.28 7.62 6.16 12.5 8.66s9.82 4.19 14.81 5.08c9.49 1.68 14.65.15 15.5-4.59.44-2.5-.59-4.59-3.07-6.27-2.49-1.69-6.62-3.73-12.37-6.12-6.32-2.58-11.55-5.08-15.67-7.48-4.12-2.41-7.45-5.68-9.98-9.82-2.53-4.14-3.25-9.24-2.17-15.32 1.27-7.16 4.93-12.84 11-17.04 6.07-4.2 14.07-6.02 24.02-5.46l2.44-13.73 14.98 2.66-2.39 13.48c4.67 1.26 9.08 2.9 13.23 4.92 4.15 2.03 7.75 4.34 10.81 6.94l-10.87 17c-7.52-5.97-15.2-9.65-23.02-11.04-4.91-.87-8.62-.78-11.12.28-2.51 1.06-3.96 2.75-4.38 5.08-.41 2.33.6 4.32 3.06 5.95 2.46 1.64 6.53 3.6 12.22 5.9 6.41 2.6 11.65 5.09 15.73 7.49 4.08 2.4 7.41 5.65 9.98 9.76 2.57 4.11 3.33 9.19 2.25 15.27-1.24 6.91-4.78 12.44-10.62 16.6z" opacity=".3"/><path fill="#f5b501" d="M1946.31 2253.27c-5.85 4.16-13.6 6.1-23.25 5.85l-2.46 13.85-14.98-2.66 2.37-13.36c-6.17-1.52-11.89-3.63-17.16-6.33-5.27-2.69-9.52-5.61-12.74-8.76l11.35-16.79c3.45 3.28 7.62 6.16 12.5 8.66s9.82 4.19 14.81 5.08c9.49 1.68 14.65.15 15.5-4.59.44-2.5-.59-4.59-3.07-6.27-2.49-1.69-6.62-3.73-12.37-6.12-6.32-2.58-11.55-5.08-15.67-7.48-4.12-2.41-7.45-5.68-9.98-9.82s-3.25-9.24-2.17-15.32c1.27-7.16 4.93-12.84 11-17.04 6.07-4.2 14.07-6.02 24.02-5.46l2.44-13.73 14.98 2.66-2.39 13.48c4.67 1.26 9.08 2.9 13.23 4.92 4.15 2.03 7.75 4.34 10.81 6.94l-10.87 17c-7.52-5.97-15.2-9.65-23.02-11.04-4.91-.87-8.62-.78-11.12.28-2.51 1.06-3.96 2.75-4.38 5.08-.41 2.33.61 4.32 3.06 5.95 2.46 1.64 6.53 3.6 12.22 5.9 6.4 2.6 11.65 5.09 15.73 7.49 4.08 2.4 7.41 5.65 9.98 9.76 2.57 4.11 3.33 9.19 2.25 15.27-1.24 6.91-4.78 12.44-10.62 16.6zM2387.73 2285.7c14.56-17.13 23.81-39.01 24.98-63.21 2.82-58.24-42.11-107.74-100.36-110.56-58.24-2.82-107.74 42.11-110.56 100.36-1.35 27.86 8.25 53.7 24.99 73.41h160.95z"/><path fill="#f9d980" d="M2240.65 2285.7h133.1c16.71-16.25 27.59-38.57 28.8-63.68 2.56-52.66-38.04-97.39-90.7-99.95-8.13-.4-16.08.23-23.71 1.8-.03-.02-.03-.02-.05.01-41.73 8.53-74.02 44.42-76.16 88.89-1.37 28.42 9.84 54.51 28.72 72.93z"/><path fill="#f9f5ed" d="M2240.65 2285.7h6.29c-19.41-18.46-31.01-44.92-29.62-73.79 2.11-43.62 33.2-78.96 73.76-88.34-1 .08-1.97.18-2.93.3-.03-.02-.03-.02-.05.01-41.73 8.53-74.02 44.42-76.16 88.89-1.38 28.42 9.83 54.51 28.71 72.93z" opacity=".35"/><path fill="#5e3f35" d="M2335.9 2246.82c-3.66 5.13-9.52 8.97-17.6 11.53l1.94 12.2-13.19 2.1-1.87-11.76c-5.55.51-10.9.4-16.05-.32s-9.51-1.92-13.08-3.61l4.59-17.18c3.81 1.73 8.09 2.92 12.85 3.59 4.77.67 9.34.66 13.74-.04 8.35-1.33 12.2-4.08 11.53-8.26-.35-2.2-1.8-3.64-4.35-4.32-2.55-.68-6.56-1.19-12.02-1.53-5.99-.32-11.03-.89-15.14-1.7-4.11-.81-7.81-2.57-11.09-5.27-3.29-2.71-5.35-6.73-6.2-12.08-1-6.3.4-12.06 4.23-17.29 3.82-5.23 9.94-9.04 18.35-11.43l-1.92-12.09 13.19-2.1 1.89 11.87c4.24-.3 8.36-.21 12.38.28 4.02.49 7.67 1.37 10.96 2.65l-4.13 17.22c-7.95-2.79-15.38-3.64-22.26-2.54-4.32.69-7.37 1.83-9.14 3.43-1.77 1.6-2.49 3.42-2.17 5.47.33 2.05 1.74 3.41 4.25 4.06 2.51.65 6.45 1.11 11.83 1.38 6.06.31 11.12.88 15.2 1.69 4.07.82 7.77 2.56 11.08 5.22 3.31 2.67 5.4 6.67 6.25 12.02.94 6.08-.4 11.69-4.05 16.81z" opacity=".3"/><path fill="#f5b501" d="M2339.3 2243.68c-3.65 5.13-9.52 8.97-17.6 11.53l1.94 12.2-13.19 2.1-1.87-11.76c-5.55.51-10.9.4-16.05-.32s-9.51-1.92-13.08-3.61l4.59-17.18c3.81 1.73 8.09 2.92 12.85 3.59 4.77.67 9.34.66 13.74-.04 8.35-1.33 12.2-4.08 11.53-8.26-.35-2.2-1.8-3.64-4.35-4.32-2.55-.68-6.56-1.19-12.02-1.53-5.98-.32-11.03-.89-15.14-1.7-4.11-.81-7.81-2.57-11.09-5.27-3.29-2.71-5.35-6.73-6.2-12.08-1-6.3.4-12.06 4.23-17.29 3.82-5.23 9.94-9.04 18.35-11.43l-1.92-12.09 13.18-2.1 1.89 11.87c4.24-.3 8.36-.21 12.38.28 4.02.49 7.67 1.37 10.96 2.65l-4.13 17.22c-7.95-2.79-15.38-3.64-22.26-2.54-4.32.69-7.37 1.83-9.14 3.43-1.77 1.6-2.5 3.42-2.17 5.47.33 2.05 1.74 3.41 4.25 4.06 2.51.65 6.45 1.11 11.83 1.38 6.06.31 11.12.88 15.2 1.69 4.07.82 7.77 2.56 11.08 5.22s5.4 6.67 6.25 12.02c.95 6.08-.39 11.69-4.04 16.81z"/><path fill="#d1c5b0" d="M2403.82 2157.16c-25.55-5.64-49.88-6.89-75.58-1.12-24.97 5.61-48.62 15.68-72.38 24.96-22.7 8.86-45.91 17.32-70.17 20.59-28.01 3.78-53.81-2.78-81.07-8.33-15.73-3.2-31.17-4.75-47.2-3.11-16.05 1.64-31.89 4.82-47.8 7.42-29.49 4.81-58.63 5.37-88.17.57-27.76-4.51-54.72-12.67-81.66-20.56-27.46-8.04-56.15-17.49-84.97-18.27-52.03-1.42-98.26 27.01-147.06 40.56-24.9 6.92-49.92 9.08-75.48 4.7-28.57-4.9-56.11-15.21-85.13-17.5-12.7-1-26.49-1.21-38.4 3.92-9.31 4.01-17.87 9.71-26.36 15.2-14.81 9.57-31.55 22.39-49.85 23.42-7.17.4-15.07-1.69-20.22-6.95-7.2-7.35-5.79-20.48-13.63-26.83-9.09-7.36-24.79-5.45-35.57-4.75-13.27.87-26.48 1.34-39.66 3.26-15.65 2.27-31.15 5.52-46.86 7.34-15.91 1.85-31.94 1.71-47.92.96-31.08-1.47-61.91-5.81-92.74-9.76 2.39 37.67 22.31 72.01 53.25 92.83h1420.02c20.35-16.88 35.36-40.48 41.19-68.38 2.54-12.13 3.14-24.22 2.06-35.95-50.28 3.2-100.06-13.51-148.64-24.22z" opacity=".5"/><path fill="#e5ded1" d="M2692.68 2333.68H863.03l-302.28 264.44h2434.2z"/><path fill="#d1c5b0" d="M2619.86 2344.2H935.84l-197.42 202.96h2096.3z" opacity=".5"/><path fill="#e5ded1" d="m560.75 2598.12 43.38 64.05h2351.11l39.71-64.05z"/><path fill="#f9d980" d="m2687.53 1781.97-42.93-81.64a22.513 22.513 0 0 0-23.72-11.71l-90.91 15.59a22.51 22.51 0 0 0-17.49 14.9l-84 245.73c-3.66 10.7 1.19 22.45 11.33 27.46l73.9 36.47c10.14 5.01 22.42 1.71 28.69-7.71l143.93-216.15a22.488 22.488 0 0 0 1.2-22.94z"/><path fill="#f5b501" d="M2549.96 1802.88c9.44 4.66 13.65 13.9 8.21 24.93-5.44 11.03-15.34 13.31-24.78 8.65-9.44-4.66-13.75-13.95-8.31-24.98 5.44-11.03 15.44-13.26 24.88-8.6zm-13.16 14.39c-2.3 4.67-1.54 7.64 1.44 9.11 2.98 1.47 5.9.31 8.2-4.36 2.35-4.77 1.5-7.79-1.48-9.26-2.99-1.46-5.81-.26-8.16 4.51zm47.1 3.72 16.4 8.09-72.78 51.08-16.4-8.09 72.78-51.08zm-5.77 43.74c9.44 4.66 13.7 13.8 8.21 24.93-5.44 11.03-15.34 13.31-24.78 8.65-9.44-4.66-13.65-13.9-8.21-24.93 5.49-11.13 15.34-13.31 24.78-8.65zm-13.16 14.39c-2.3 4.67-1.54 7.64 1.44 9.11 2.98 1.47 5.9.31 8.2-4.36 2.3-4.67 1.5-7.79-1.48-9.26-2.98-1.46-5.85-.16-8.16 4.51z"/><path fill="#f9d980" d="M2540.51 1293.26c0 12.81-10.38 23.19-23.19 23.19s-23.19-10.38-23.19-23.19c0-12.8 10.38-23.19 23.19-23.19 12.81.01 23.19 10.39 23.19 23.19zM2380.04 1405.5c0 24.61-19.95 44.56-44.56 44.56-24.61 0-44.56-19.95-44.56-44.56 0-24.61 19.95-44.56 44.56-44.56 24.62.01 44.56 19.95 44.56 44.56zM2335.49 1143.21l33.58 86.21s135.62-97.17 273.23 41.57l39.9-134.6s-77.74-171.44-346.71 6.82z"/><circle cx="2512.33" cy="1128.83" r="46.37" fill="#f9f5ed" opacity=".5" transform="rotate(-45.001 2512.325 1128.86)"/><path fill="#f5b501" d="M2510.62 1148.27c-7.4-.61-12.8-4.43-13.12-11.44l9.89-.06c.23 2.23 1.33 3.58 3.18 4.17l-.05-8.59c-5.83-1.49-13.12-3.07-13.17-11.61-.04-6.8 5.64-10.85 13.03-11.39l-.03-4.4 3.48-.02.03 4.4c7.45.55 12.26 4.33 12.79 11.23l-9.95.06c-.23-2.01-1.27-3.26-2.8-3.79l.05 8.43c5.83 1.59 13.28 3.13 13.34 11.55.04 5.87-4.61 11.07-13.19 11.5l.03 4.4-3.48.02-.03-4.46zm-.14-24.13-.05-7.56c-2.01.34-3.25 1.54-3.24 3.66.01 1.9 1.32 3.04 3.29 3.9zm3.53 9.22.05 7.72c2.17-.39 3.52-1.87 3.51-3.88-.01-1.96-1.43-3.04-3.56-3.84z"/><path fill="#f9d980" d="m1131.08 1923.16 51.75 36.8s41.18-106.86 172.42-79.14l-27.84-92.26s-109.22-69.05-196.33 134.6z"/><path fill="#f9f5ed" d="M1253.6 1830.61c9.74 14.63 5.78 34.39-8.85 44.13-14.63 9.74-34.39 5.78-44.13-8.85-9.74-14.63-5.78-34.39 8.85-44.13 14.63-9.74 34.38-5.78 44.13 8.85z" opacity=".5"/><path fill="#f5b501" d="M1233.46 1860.05c-4.47 2.44-9.02 2.28-11.84-1.62l5.65-3.76c.97 1.19 2.11 1.55 3.39 1.19l-3.27-4.91c-3.9 1.34-8.69 3.18-11.93-1.69-2.59-3.88-.85-8.35 3.18-11.45l-1.68-2.52 1.99-1.32 1.68 2.52c4.48-2.49 8.66-2.14 11.57 1.62l-5.69 3.79c-.89-1.07-1.96-1.39-3.03-1.12l3.2 4.81c3.94-1.28 8.8-3.21 12.01 1.6 2.23 3.35 1.53 8.08-3.24 11.57l1.68 2.52-1.99 1.32-1.68-2.55zm-9.18-13.79-2.88-4.32c-1.02.95-1.28 2.11-.48 3.32.73 1.09 1.9 1.24 3.36 1zm5.5 3.95 2.94 4.41c1.1-1.04 1.32-2.4.55-3.55-.75-1.11-1.97-1.2-3.49-.86z"/><path fill="#f9d980" d="m954.93 1345.29-60.35 42.91s-48.02-124.61-201.05-92.28l32.46-107.58s127.36-80.52 228.94 156.95z"/><path fill="#f9f5ed" d="M812.06 1237.37c-11.36 17.06-6.74 40.1 10.32 51.46 17.06 11.36 40.1 6.74 51.46-10.32 11.36-17.06 6.74-40.1-10.32-51.46-17.06-11.36-40.1-6.74-51.46 10.32z" opacity=".5"/><path fill="#f5b501" d="M835.86 1271.84c-5.3-2.69-8.15-7.16-6.26-12.45l7.35 2.95c-.5 1.72-.1 3.05 1.1 4.05l2.56-6.38c-3.87-2.86-8.79-6.25-6.25-12.59 2.03-5.05 7.46-6.34 13.1-4.5l1.31-3.27 2.59 1.04-1.31 3.27c5.35 2.67 7.77 6.92 6.08 12.19l-7.39-2.96c.44-1.56.04-2.8-.92-3.65l-2.51 6.26c3.83 2.94 8.9 6.34 6.39 12.6-1.75 4.36-6.76 6.81-13.26 4.53l-1.31 3.27-2.58-1.04 1.31-3.32zm7.19-17.93 2.25-5.61c-1.59-.36-2.88.16-3.51 1.73-.56 1.41.07 2.65 1.26 3.88zm-.17 7.9-2.3 5.73c1.73.37 3.17-.32 3.77-1.81.59-1.46-.13-2.68-1.47-3.92z"/><path fill="#f9d980" d="m1029.76 1499.03-513.92.32c-11.13.01-20.15 9.04-20.14 20.17l.09 148.63c.01 11.13 9.04 20.15 20.17 20.14l513.92-.32c11.13-.01 20.15-9.04 20.14-20.17l-.09-148.63c-.01-11.13-9.04-20.15-20.17-20.14z"/><path fill="#f5b501" d="m557.91 1580.22 15.09-.01c4.08 0 7.38-3.31 7.38-7.39s-3.31-7.38-7.39-7.38l-15.09.01c-4.08 0-7.38 3.31-7.38 7.39s3.31 7.39 7.39 7.38zM740.99 1580.11l15.09-.01c4.08 0 7.38-3.31 7.38-7.39s-3.31-7.38-7.39-7.38l-15.09.01c-4.08 0-7.38 3.31-7.38 7.39s3.31 7.38 7.39 7.38zM600.5 1580.2l112.26-.07c4.08 0 7.38-3.31 7.38-7.39s-3.31-7.38-7.39-7.38l-112.26.07c-4.08 0-7.38 3.31-7.38 7.39.01 4.07 3.32 7.38 7.39 7.38zM878.54 1565.25l-90.88.06c-4.08 0-7.38 3.31-7.38 7.39s3.31 7.38 7.39 7.38l90.88-.06c4.08 0 7.38-3.31 7.38-7.39s-3.31-7.38-7.39-7.38zM701.94 1607.21l-144.01.09c-4.08 0-7.38 3.31-7.38 7.39s3.31 7.38 7.39 7.38l144.01-.09c4.08 0 7.38-3.31 7.38-7.39s-3.31-7.38-7.39-7.38zM785.23 1607.16l-55.8.04c-4.08 0-7.38 3.31-7.38 7.39s3.31 7.38 7.39 7.38l55.8-.04c4.08 0 7.38-3.31 7.38-7.39-.01-4.08-3.32-7.38-7.39-7.38z" opacity=".5"/><path fill="#f5b501" d="M1005.51 1595.09c-.85 25.48-22.2 45.44-47.68 44.58-25.48-.85-45.44-22.2-44.58-47.68.85-25.48 22.2-45.44 47.68-44.58 25.47.86 45.43 22.2 44.58 47.68z"/><path fill="#ffca03" d="M1001.44 1594.95c-.78 23.23-20.24 41.43-43.47 40.65-23.23-.78-41.43-20.24-40.65-43.47.78-23.23 20.24-41.43 43.47-40.65 23.23.78 41.42 20.24 40.65 43.47z"/><path fill="#f2faff" d="M931.72 1573.47c2.28-3.66 4.06-7.34 7.4-10.22 3.29-2.82 7.17-4.68 11.24-6.09 5.99-2.08 12.23-3.04 18.35-4.57-2.57-.59-5.19-1.02-7.93-1.11-18.3-.61-34.22 10.57-40.55 26.7 4.15.99 8.81-.4 11.49-4.71z" opacity=".49"/><path fill="#202234" d="M985.38 1566.33c-2.11 2.6.21 8 1.15 10.65 1.26 3.55 3 6.95 3.99 10.59 2.51 9.23 3.57 20.93-3.11 28.69-2.12 2.46-4.95 4.02-7.3 6.21-2.03 1.89-3.76 4.08-5.91 5.84-4.42 3.62-9.86 5.11-15.51 4.44-5.54-.66-14.97-4.82-21.91-3.74 6.14 3.92 13.36 6.34 21.18 6.6 23.23.78 42.69-17.42 43.47-40.65.39-11.73-4.06-22.5-11.56-30.38-1.72-.1-3.34.33-4.49 1.75z" opacity=".15"/><path fill="#f5b501" d="M973.24 1608.65c-2.32 2.21-5.61 3.55-9.89 4.05l-.21 6.27-6.78-.23.2-6.05c-2.82-.28-5.48-.85-7.97-1.71-2.5-.86-4.56-1.88-6.17-3.06l3.95-8.13c1.73 1.23 3.75 2.24 6.06 3.03 2.31.79 4.6 1.23 6.86 1.3 4.29.15 6.48-.86 6.55-3 .04-1.13-.54-1.99-1.75-2.58-1.21-.59-3.16-1.23-5.85-1.92-2.95-.74-5.42-1.51-7.39-2.31a12.47 12.47 0 0 1-5.02-3.7c-1.38-1.67-2.02-3.87-1.93-6.62.11-3.24 1.37-5.98 3.78-8.21 2.41-2.24 5.83-3.55 10.25-3.93l.21-6.21 6.78.23-.21 6.1c2.14.26 4.19.71 6.15 1.34 1.96.63 3.69 1.43 5.21 2.38l-3.72 8.19c-3.7-2.16-7.32-3.3-10.86-3.42-2.22-.07-3.85.2-4.89.83-1.04.63-1.58 1.47-1.61 2.52-.04 1.06.54 1.87 1.73 2.43 1.19.57 3.11 1.18 5.76 1.83 2.99.74 5.46 1.51 7.42 2.31 1.95.8 3.62 2.03 5.02 3.67 1.4 1.65 2.05 3.85 1.96 6.6-.12 3.13-1.33 5.8-3.64 8z"/><path fill="#e5ded1" d="M3421.92 2058.24h-50.78c-5.41 0-10.23 3.75-11.93 9.27l-26.39 85.63H2825.7c-3.81 0-7.42 1.87-9.78 5.06-2.41 3.2-3.3 7.38-2.48 11.39l49.72 242.37c1.28 6.19 6.37 10.6 12.26 10.6h423.86c16.58 0 30.05 14.52 30.05 32.35 0 17.84-13.48 32.35-30.05 32.35h-325.85c-6.94 0-12.57 6.06-12.57 13.54 0 7.47 5.63 13.51 12.57 13.51h325.85c30.43 0 55.18-26.66 55.18-59.4 0-32.77-24.75-59.4-55.18-59.4h-5.06l59.73-224.96 26.27-85.26h21.92c.01-.05.04-.09.05-.13h19.73c6.87 0 12.5-6.06 12.5-13.47.01-7.38-5.62-13.45-12.5-13.45zm-279.66 121.96h96.38l-13.89 63.36h-82.48v-63.36zm0 76.89h79.51l-14.44 65.82h-65.07v-65.82zm-300.92-76.89h69.12l13.88 63.36h-70l-13-63.36zm15.79 76.89h70.18l14.44 65.82h-71.12l-13.5-65.82zm28.39 138.43-12.11-59.08h71.3l12.96 59.08h-72.15zm134.21 0h-49.14l-12.96-59.08h62.1v59.08zm0-72.61h-65.08l-14.43-65.82h79.51v65.82zm0-79.35h-82.47l-13.9-63.36h96.38v63.36zm109.96 151.96h-97.39v-59.08h97.39v59.08zm0-72.61h-97.39v-65.82h97.39v65.82zm0-79.35h-97.39v-63.36h97.39v63.36zm12.57 151.96v-59.08h62.11l-12.96 59.08h-49.15zm125.84 0h-63.79l12.96-59.08h66.5l-15.67 59.08zm19.26-72.61h-67.13l14.44-65.82h70.16l-17.47 65.82zm21.06-79.35h-70.79l13.9-63.36h73.7l-16.81 63.36z"/><path fill="#d1c5b0" d="M3074.65 2514.32c0 25.18-18.96 45.58-42.35 45.58-23.4 0-42.36-20.4-42.36-45.58s18.96-45.58 42.36-45.58c23.39 0 42.35 20.4 42.35 45.58z"/><path fill="#e5ded1" d="M3057.42 2514.32c0 14.94-11.25 27.05-25.12 27.05-13.89 0-25.15-12.11-25.15-27.05 0-14.94 11.25-27.06 25.15-27.06 13.87.01 25.12 12.13 25.12 27.06z"/><path fill="#d1c5b0" d="M3041.77 2514.32c0 5.64-4.23 10.22-9.47 10.22-5.25 0-9.5-4.58-9.5-10.22 0-5.64 4.25-10.21 9.5-10.21 5.24.01 9.47 4.58 9.47 10.21zM3272.99 2514.32c0 25.18-18.96 45.58-42.35 45.58-23.4 0-42.36-20.4-42.36-45.58s18.96-45.58 42.36-45.58c23.39 0 42.35 20.4 42.35 45.58z"/><path fill="#e5ded1" d="M3255.78 2514.32c0 14.94-11.25 27.05-25.14 27.05s-25.14-12.11-25.14-27.05c0-14.94 11.25-27.06 25.14-27.06 13.89.01 25.14 12.13 25.14 27.06z"/><path fill="#d1c5b0" d="M3240.13 2514.32c0 5.64-4.25 10.22-9.49 10.22s-9.5-4.58-9.5-10.22c0-5.64 4.26-10.21 9.5-10.21 5.24.01 9.49 4.58 9.49 10.21zM2639.14 667.89l12.4 37.78 99.17-37.78s21.9 58.44 26.45 52.25 188.42-134.29 188.42-134.29l-175.61 82.04-22.73-48.99-128.1 48.99zM1019.87 682.55l-12.4 37.78-99.17-37.78s-21.9 58.44-26.45 52.25c-4.54-6.2-188.42-134.29-188.42-134.29l175.61 82.04 22.73-48.99 128.1 48.99zM1704.91 699.9l28.75 27.48 69.64-80.08s46.87 41.21 47.95 33.61c1.09-7.61 102.85-207.26 102.85-207.26L1837.91 628.8l-43.14-32.49-89.86 103.59z"/><path fill="#f4caba" d="m1538.36 1179.42 13.53 184.39c26.87-44.88 33.88-85.63 65.48-124.61 37.86-46.71 50.72-22.66 83.42-3.07 3.52 2.11-67.48 294.36-186.27 257.19-61.99-19.4-30.6-297.95-30.6-297.95l54.44-15.95z"/><path fill="#231f20" d="M1512.22 1228.98c8.44 4.66 20.87 7.93 24.66 17.86 1.69 4.44 1.65 9.35 1.69 14.03.05 6.38.46 12.71 2.12 18.9 1.23 4.61 3.24 9.27 6.01 13.2l-8.33-113.56-54.44 15.95s-.48 4.3-1.2 11.8c8.65 8.71 18.64 15.84 29.49 21.82z" opacity=".1"/><path fill="#f5b501" d="M1602.77 1229.93c-33.38 40.27 45.71 109.4 62.57 98.41 16.87-10.99 96.34-199.08 96.34-199.08s-77.34 2.26-158.91 100.67z"/><path fill="#ffca03" d="M1790.93 1121.23c-130.33-.09-235.93 455.09-190.47 528.05 100.47 79 321.16 99.02 381.27-11.01 52.4-95.93-19.34-516.91-190.8-517.04z"/><path fill="#f4caba" d="m1979.67 1279.25 43.28 97.52 183.85-73.91 12.01 38.46s-142.45 152.31-204.41 133.44c-61.96-18.87-83.44-147.05-83.44-147.05l48.71-48.46z"/><path fill="#f4caba" d="M2265.26 1313.44c-3.1 1.87-6.29 3.32-9.35 4.43-9.42 3.44-17.59 3.69-17.59 3.69l-52.74 53.42c-12.1-8.06-23.67-24.4-25.5-27.3 0 0 52.89-44.71 54.49-57.54.04-.1.04-.25.05-.35-.77-2.9.4-7.65 2.64-12.57a57.67 57.67 0 0 1 5.83-9.92c5.48-7.44-2.9-31.33 2.61-32.82 5.52-1.47 14.13 11.08 12.92 18.66-1.19 7.57 5.6 8.56 10.95 3.57 8.24-7.7 38.68-51.69 44.84-46.86 6.16 4.84-24.16 48.31-24.16 48.31s42.64-43.51 46.13-35.71c3.48 7.78-36.75 46.75-36.75 46.75s33.59-29.08 40.09-24.56c6.52 4.49-31.32 38.88-31.32 38.88s26.56-17.4 32.11-12.92c5.54 4.47-42.62 35.17-55.25 42.84z"/><path fill="#231f20" d="M2216.26 1301.01c.86 5.17 4.29 9.53 8.3 12.76 3.97 3.19 8.91 5.57 14.06 5.83 1.53.08 2.99-.11 4.43-.42-.83-.07-1.64-.16-2.4-.33-9.36-1.98-11.85-12.25-11.85-12.25-2.18-.46-8.44-6.54-12.32-12.9-.29 2.42-.63 4.86-.22 7.31z" opacity=".1"/><path fill="#fff" d="M2265.26 1313.44c-3.1 1.87-6.29 3.32-9.35 4.43-4.86 1.12-10.75 1.95-15.27.98-9.36-1.98-11.85-12.25-11.85-12.25-2.59-.55-10.94-9.01-14.21-16.46.04-.1.04-.25.05-.35-.77-2.9.4-7.65 2.64-12.57a57.67 57.67 0 0 1 5.83-9.92c5.48-7.44-2.9-31.33 2.61-32.82 5.52-1.47 14.13 11.08 12.92 18.66-1.19 7.57 5.6 8.56 10.95 3.57 8.24-7.7 38.68-51.69 44.84-46.86 6.16 4.84-24.16 48.31-24.16 48.31s42.64-43.51 46.13-35.71c3.48 7.78-36.75 46.75-36.75 46.75s33.59-29.08 40.09-24.56c6.52 4.49-31.32 38.88-31.32 38.88s26.56-17.4 32.11-12.92c5.53 4.47-42.63 35.17-55.26 42.84z" opacity=".2"/><path fill="#e8ad80" d="M2288.89 1287.84c-1.25-3.01-2.55-5.98-4-8.86-1.46-2.87-3.01-5.71-5.01-8.19-1.97-2.53-4.18-4.9-6.43-7.21-2.27-2.3-4.63-4.51-7.24-6.46 2.89 1.53 5.46 3.59 7.89 5.78 2.44 2.19 4.64 4.6 6.75 7.13 2.03 2.63 3.59 5.55 4.91 8.54 1.3 3.01 2.38 6.09 3.13 9.27z"/><path fill="#f5b501" d="M2003.99 1284.7c23.48 46.74-55.42 67.96-69.39 53.47-13.97-14.5-82.34-193.46-82.34-193.46s94.35 25.78 151.73 139.99z"/><path fill="#e8ddc5" d="m1511.84 1087.1-12.31 36.04 11.5 10.81-15.29 37.88s-22.7 7.87-14.11 22.51 44.32 14.14 44.32 14.14 49.25-124.61 43.67-132.06c-5.58-7.46-57.78 10.68-57.78 10.68z"/><linearGradient id="c" x1="-2254.497" x2="-2228.542" y1="919.976" y2="919.976" gradientTransform="scale(-1 1) rotate(15.658 -2725.461 3714.27)" gradientUnits="userSpaceOnUse"><stop offset="0" stop-color="#6c696a" stop-opacity=".134"/><stop offset="1" stop-color="#231f20" stop-opacity=".2"/></linearGradient><path fill="url(#c)" d="M1513.29 1137.31s3.14 3.04.86 7.16c-2.28 4.12-5.22 3.71-5.22 3.71s.29 2.12-.6 6.82c-.89 4.7-5.06 4.11-5.06 4.11s-1.31 2.7-1.2 3.9c.12 1.2 1.94 6.46-1.01 7.24-2.95.78-4.72.13-4.72.13l6.4-15.98 5.9-14.47 4.65-2.62z"/><path fill="#e8ad80" d="m1522.36 1084.19-13.12 38.04 12.18 11.39-16.28 39.99s-24.1 8.34-15.01 23.77c9.08 15.43 46.98 14.84 46.98 14.84s10.52-83.13 46.55-139.41c-5.9-7.86-61.3 11.38-61.3 11.38z"/><path fill="#47271f" d="M1539.33 1170.48c1.06-7.65 2.71-15.16 4.78-22.59 2.1-7.57 4.51-15.04 6.61-22.61.78-2.81 1.61-5.62 2.08-8.5.47-2.9.67-6.03-.32-8.84-1.8-5.11-6.97-6.8-11.86-7.53-5.11-.76-10.27-.58-15.41-.99-2.67-.21-5.35-.19-8.02-.25l5.17-14.98s55.4-19.24 61.31-11.38c-28.68 44.79-41.19 106.59-45.11 129.95-1.02-10.73-.7-21.61.77-32.28z" opacity=".1"/><path fill="#e8ad80" d="M1508.31 1146.2c1.95.64 4.29-1.14 5.23-3.98.94-2.84.11-5.66-1.85-6.31-1.95-.64-4.29 1.14-5.23 3.98-.93 2.84-.1 5.66 1.85 6.31zM1503.08 1157.71c1.95.64 4.29-1.14 5.23-3.98.93-2.84.11-5.66-1.85-6.31-1.95-.64-4.3 1.14-5.23 3.98-.93 2.84-.1 5.67 1.85 6.31zM1497.85 1169.22c1.95.64 4.29-1.14 5.23-3.98.93-2.84.11-5.66-1.85-6.31-1.95-.64-4.29 1.14-5.23 3.98-.93 2.85-.1 5.67 1.85 6.31z"/><path fill="#f9f9f9" d="M1510.32 1136.93c-.89-.91-3.12 1.24-3.09 4.07.04 2.83 1.17 5.59 2.57 4.33 1.4-1.25-1.28-2.19-.82-4.23.45-2.04 2.11-3.39 1.34-4.17zM1504.35 1149.37c-.76-.77-2.65 1.05-2.62 3.45.03 2.4.99 4.73 2.18 3.67 1.19-1.06-1.08-1.85-.7-3.58.39-1.73 1.8-2.88 1.14-3.54zM1499.45 1160.79c-.76-.77-2.65 1.05-2.62 3.45.03 2.4.99 4.74 2.18 3.68 1.19-1.06-1.08-1.85-.7-3.58.38-1.74 1.79-2.89 1.14-3.55z" opacity=".26"/><path fill="#e8ad80" d="M1606.02 1056.36c-7.21 16.76-6.65 33.1 1.26 36.5s20.15-7.43 27.36-24.19c7.21-16.75 6.64-33.09-1.26-36.49-7.9-3.41-20.15 7.42-27.36 24.18z"/><path fill="#e8ddc5" d="M1591.13 1049.95c-10.93 25.4-12.41 49.16-3.32 53.07 9.09 3.91 25.32-13.51 36.24-38.91 10.92-25.4 12.41-49.16 3.32-53.07-9.09-3.91-25.32 13.51-36.24 38.91z"/><path fill="#e8ad80" d="m1496.54 939.67 123.01 52.91c9.09 3.91 5.15 33.38-8.8 65.81-13.95 32.44-32.63 55.56-41.72 51.65l-123.01-52.91 50.52-117.46z"/><path fill="#f9f5ed" d="M1454.82 991.32c-13.95 32.44-17.89 61.91-8.8 65.82 9.09 3.91 27.77-19.22 41.72-51.65 13.95-32.44 17.89-61.9 8.8-65.82-9.09-3.91-27.77 19.21-41.72 51.65z"/><path fill="#fff" d="M1354.3 794.88c53.85 84.44 138.56 148.02 138.56 148.02l-.18.44c6.02 4.12 1.03 30.16-11.52 59.32-12.9 29.99-28.9 51.92-35.73 48.98-.32-.14-.61-.35-.88-.59-13.69-2.15-109.99-16.11-201.09 1.48-98.34 18.98-121.81 11.73-121.81 11.73l74.04-172.14 9.29-21.61 74.04-172.14c.02.01 21.43 12.06 75.28 96.51z"/><path fill="#47271f" d="M1471.36 1019.86c-15.51 9.41-33.95 13.62-51.81 15.52-18.54 1.97-37.36 1.55-55.88-.51-25.25-2.81-49.67-10.3-74.94-12.96-16.15-1.7-31.89-.53-47.95 1.45-14.69 1.81-29.56 3.88-44.37 2.43-1.37-.14-2.97-1.34-3.05-2.82-.38-6.64 2.2-12.6 4.61-18.65 2.81-7.08 3.89-13.54 4.23-21.11.4-9.07.32-18.47-1.05-27.6-7.01 1.17-14.15 1.25-21.27-.04-3.51-.64-6.95-1.53-10.34-2.58l-47.86 111.27s23.47 7.25 121.81-11.73c91.1-17.59 187.4-3.63 201.09-1.48.27.24.56.45.88.59 5.58 2.4 17.29-11.82 28.43-33.47-.87.55-1.66 1.16-2.53 1.69z" opacity=".1"/><path fill="#e8ad80" d="M1168.8 867.64c-43.44 100.99-63.76 189.25-45.39 197.16 18.36 7.9 68.47-67.56 111.9-168.55 43.43-100.98 63.76-189.25 45.39-197.15-18.36-7.91-68.46 67.56-111.9 168.54z"/><path fill="#e7d8bc" d="M1126.76 1054.85c14.15 6.1 52.34-50.25 89.58-130.15 4.61-9.89 9.22-20.15 13.75-30.7 4.46-10.37 8.68-20.59 12.64-30.58 32.53-82.22 47.24-148.96 33.05-155.06-15.91-6.85-62.17 65.17-103.33 160.85-41.16 95.68-61.61 178.79-45.69 185.64z"/><path fill="#47271f" d="M1215.63 780.52c-3.49 7.69-6.92 15.42-10.27 23.19-8.69 20.19-16.64 40.59-24.18 61.12-5.46 14.88-10.69 29.85-15.06 44.78-4.19 14.28-7.67 28.72-9.2 42.11-1.45 12.71-.94 24.24 2.26 32.51 3.56 9.22 10.12 14.06 17.48 16.23-22.08 36.77-40.87 58.27-49.9 54.38-15.92-6.85 4.54-89.96 45.7-185.64 14.26-33.17 29.14-63.49 43.17-88.68z" opacity=".1"/><path fill="#f9f5ed" d="m1176.02 902.29 40.32 22.42c4.61-9.89 9.22-20.15 13.75-30.7 4.46-10.37 8.68-20.59 12.64-30.58l-44.29-13.26-22.42 52.12z"/><path fill="#e8ad80" d="M1179.12 872.74c-6.19 14.4-7.58 27.63-3.1 29.55 4.48 1.93 13.12-8.18 19.32-22.57 6.19-14.39 7.58-27.62 3.1-29.55-4.48-1.93-13.13 8.17-19.32 22.57z"/><path fill="#f4ede1" d="M1181.84 873.9c-4.79 11.15-6.27 21.23-3.29 22.51 2.98 1.28 9.28-6.72 14.08-17.87 4.79-11.15 6.27-21.23 3.29-22.51-2.99-1.27-9.29 6.73-14.08 17.87z"/><path fill="#f4caba" d="M1466.25 1187.49c13.93 7.43 57.41 17.73 63.12 1.9 2.67-7.4-2.52-12.13-7.46-14.12 6.24.91 13.45 1.5 15.01-8.02 1.11-6.8-1.9-10.25-12.31-13.44 4.05.66 14.22 1.07 15.47-5.92 2.12-11.86-7.24-14.53-10.82-15.95 2.47.33 4.49-3.19 4.85-7.8.43-5.74 2.58-11.3-14.01-15.32-5.52-1.34-6.6-5.08-14.26-5.21-5.9-.1-12.01-.87-16.81 1.39-23.11 10.88-35.15 75.89-22.78 82.49z"/><path fill="#e8ad80" d="M1502.58 1170c8.75 1.43 17.7 4 18.18 4.14.47.14.75.63.61 1.1-.14.47-.63.74-1.1.61-.15-.04-15.41-4.43-25.41-4.95a.887.887 0 0 1-.84-.94c.03-.49.45-.87.94-.84 2.36.13 4.98.45 7.62.88zM1506.07 1148.59c8.75 1.43 17.7 4 18.18 4.14.47.14.75.63.61 1.1-.14.47-.63.74-1.1.61-.15-.04-15.41-4.43-25.41-4.95a.893.893 0 0 1-.84-.94c.03-.49.45-.87.94-.84 2.36.12 4.99.45 7.62.88zM1509.58 1127.17c8.75 1.43 17.69 4 18.18 4.14a.89.89 0 0 1-.49 1.71c-.15-.04-15.41-4.43-25.41-4.95a.893.893 0 0 1-.84-.94c.03-.49.45-.87.94-.84 2.35.12 4.97.45 7.62.88z"/><path fill="#f4caba" d="M1564.82 1138.29c-.46-2.12-7.95-34.2-20.71-33.48-12.77.72-.09 51.58-1.2 51.94-1.11.37-1.44 42.96-1.44 42.23s28.17-38.53 23.35-60.69z"/><path fill="#fff" d="M1556.71 1116.62s-5.37 1.61-5.61 1.37c-.25-.24-4.01-10.7-4.02-11.72-.02-1.03 5.4 1.66 9.63 10.35z" opacity=".5"/><path fill="#47271f" d="M1814.11 1065.62s26.25 15.07 38.46-4.56c0 0 24.53 3.17 28.53-12.09 4-15.25-7.5-23.95-7.5-23.95s23.87-16.62 3.12-28.9c-22.45-13.28-8.78-26-14.21-38.92-5.44-12.92-21.94-7.44-38.26-14.99-16.32-7.54-25.7.85-41.75 11.06-16.05 10.23-17.92 109.21 31.61 112.35z"/><path fill="#f4caba" d="m1763.13 1089.91-5.94 63.65s76.98-2.67 71.6-17.95c-13.56-38.49-6.18-90.87-6.18-90.87l-59.48 45.17z"/><path fill="#231f20" d="M1804.12 1065.41c1.05 3.87.05 8.55-.81 12.37-2.46 10.92-7.14 21.28-16.38 28.08-4.75 3.5-9.99 6.28-14.7 9.84-5.05 3.83-8.92 8.56-12 14.08-.38.68-.66 1.39-1.02 2.08l3.91-41.94 33.66-25.57c2.8-1.22 6.31-2.76 7.34 1.06z" opacity=".1"/><path fill="#f4caba" d="M1748.43 967.4s-11.67 23.85-16.01 45.3c0 0-15.15 19.85-14.7 28.63l9.25 3.7s-22.88 37.3 1.67 56.05c24.54 18.75 82.57-19.75 82.57-19.75l13.01-32.91s16.55-7.76 14.35-22.33c-2.2-14.57-11.63-7.83-11.63-7.83s-20.38-70.45-78.51-50.86z"/><path fill="#47271f" d="M1826.93 1018.26s-11.57 21.54-19.83 21.19-8.55-37.6-13.22-47.3c0 0-57.71.75-62.94-41.29-5.23-42.05 24.69-24.25 24.69-24.25s4.84-24.86 25.87-17.68 26.04 28.27 26.04 28.27 8.38-17.36 22.92-13.46c14.54 3.9 24.82 23.44 18.12 39.89.01 0 12.95 40.86-21.65 54.63z"/><path fill="#543047" d="M1832.38 1033.08c.36.05.74-.11.93-.45 5.24-8.95-1.99-13.5-2.06-13.54a.923.923 0 0 0-.97 1.57c.24.15 5.73 3.68 1.43 11.04a.93.93 0 0 0 .33 1.27c.11.06.22.09.34.11z"/><path fill="#231f20" d="M1742.91 1049.13c.7 5.82 7.17 9.82 14.46 8.94 7.29-.88 12.63-6.3 11.93-12.12-.7-5.81-7.17-9.82-14.46-8.94s-12.63 6.31-11.93 12.12z" opacity=".1"/><path fill="#47271f" d="M1718.79 1069.69c.37 3.09 3.81 5.22 7.69 4.76 3.88-.47 6.72-3.35 6.34-6.44-.37-3.09-3.82-5.22-7.69-4.76-3.88.46-6.72 3.35-6.34 6.44zM1746.72 1010.13c-.51 3.42 1.51 6.55 4.5 6.99 2.97.44 5.8-1.97 6.31-5.39.09-.6.09-1.18 0-1.75-.62.43-1.41.67-2.21.55a2.961 2.961 0 0 1-2.5-3.37c.14-.91.65-1.65 1.39-2.1-.36-.14-.75-.26-1.15-.32-3-.44-5.83 1.97-6.34 5.39zM1769.34 1003.96c-.12-.29-3.07-7.09-10.02-9.76-4.53-1.74-10.48-2.65-15.1 1.25-3.45 2.92.89 5.09 2.1 4.48 9.62-4.84 23.55 5.28 23.02 4.03z"/><path fill="#e3ddd1" d="M1226.12 2193.26a95.964 95.964 0 0 0-4.94-9.72c-4.75-8.09-11.04-15.55-18.29-15.67-3.59-.08-14.2-.1-28.52-.14-23.34-.04-56.49-.02-84.94.03-13.03 0-25.09.02-34.76.05-43.79-.09-136.13-.21-148.22.05-15.9.3-27.34 35.93-27.34 35.93h351.13c0 .01-1.47-4.6-4.12-10.53z"/><path fill="#d1c5b0" d="M1182.13 2180.46c-10.38-.15-89.8-.06-127.45-.02-37.64-.04-117.07-.13-127.45.02-13.68.21-23.52 23.34-23.52 23.34h301.94c-.01 0-9.84-23.13-23.52-23.34zM1055.94 2206.9l-156.48-3.1 22.9 150.91s4.24 16.6 17.39 16.6h232.39c13.15 0 17.4-16.6 17.4-16.6l22.89-150.91-156.49 3.1z"/><path fill="#e3ddd1" d="M1230.25 2203.8c0 6.31-5.13 11.44-11.46 11.44H890.56c-4.51 0-8.44-2.62-10.28-6.41-.76-1.51-1.18-3.24-1.18-5.03 0-1.99.5-3.85 1.39-5.48.52-.97 1.18-1.84 1.96-2.62 2.08-2.06 4.94-3.33 8.11-3.33h328.23c6.33-.01 11.46 5.09 11.46 11.43z"/><linearGradient id="d" x1="859.649" x2="1057.373" y1="2216.961" y2="2216.961" gradientUnits="userSpaceOnUse"><stop offset=".213" stop-color="#ebeae2"/><stop offset="1" stop-color="#ebeadb"/></linearGradient><path fill="url(#d)" d="M1057.26 2196.45a5.35 5.35 0 0 0-.99-2.13c-1.16-1.44-3.1-2.22-5.01-1.8l-109.48 22.71-44.44 9.22-25.17 5.22 6.33-20.42 1.77-.43c-.76-1.51-1.18-3.24-1.18-5.03 0-1.99.5-3.85 1.39-5.48l-7.18 1.75c-1.73.42-3.12 1.7-3.66 3.43l-9.76 31.44a5.1 5.1 0 0 0 1.09 4.94c1.23 1.3 3.05 1.91 4.8 1.54l29.88-6.19 95.46-19.81.8-.17 61.4-12.74c.19-.07.36-.09.52-.14 2.46-.81 3.98-3.34 3.43-5.91z"/><linearGradient id="e" x1="1533.634" x2="1731.358" y1="2216.961" y2="2216.961" gradientTransform="matrix(-1 0 0 1 2783.627 0)" gradientUnits="userSpaceOnUse"><stop offset=".213" stop-color="#ebeae2"/><stop offset="1" stop-color="#ebeadb"/></linearGradient><path fill="url(#e)" d="M1052.38 2196.45c.16-.8.52-1.51.99-2.13 1.16-1.44 3.1-2.22 5.01-1.8l109.48 22.71 44.43 9.22 25.17 5.22-6.33-20.42-1.77-.43c.76-1.51 1.18-3.24 1.18-5.03 0-1.99-.5-3.85-1.39-5.48l7.19 1.75c1.73.42 3.12 1.7 3.66 3.43l9.76 31.44a5.1 5.1 0 0 1-1.09 4.94c-1.23 1.3-3.05 1.91-4.8 1.54l-29.88-6.19-95.46-19.81-.8-.17-61.4-12.74c-.19-.07-.35-.09-.52-.14-2.46-.81-3.97-3.34-3.43-5.91z"/><path fill="#e3ddd1" d="M1063.96 2344.97c0 3.31-2.88 5.98-6.44 5.98-3.54 0-6.42-2.67-6.42-5.98v-106.78c0-3.31 2.88-5.98 6.42-5.98 3.56 0 6.44 2.68 6.44 5.98v106.78zM958.53 2343.77c.47 3.28-2.02 6.28-5.56 6.7-3.52.42-6.74-1.88-7.18-5.16l-14.67-105.91c-.45-3.27 2.04-6.28 5.55-6.7 3.52-.42 6.75 1.89 7.2 5.17l14.66 105.9zM992.55 2344.47c.23 3.29-2.46 6.13-5.99 6.36-3.55.21-6.61-2.28-6.84-5.58l-7.46-106.56c-.23-3.29 2.45-6.15 5.99-6.36 3.55-.22 6.61 2.28 6.84 5.58l7.46 106.56zM1029.02 2344.65c.16 3.3-2.59 6.09-6.14 6.24-3.54.15-6.56-2.4-6.71-5.7l-5.27-106.67c-.16-3.29 2.59-6.09 6.13-6.24 3.55-.15 6.56 2.4 6.72 5.7l5.27 106.67zM1156.53 2343.77c-.45 3.28 2.04 6.28 5.55 6.7 3.52.42 6.75-1.88 7.2-5.16l14.66-105.91c.45-3.27-2.03-6.28-5.55-6.7-3.53-.42-6.75 1.89-7.21 5.17l-14.65 105.9zM1122.52 2344.47c-.22 3.29 2.46 6.13 6 6.36 3.55.21 6.61-2.28 6.84-5.58l7.47-106.56c.23-3.29-2.46-6.15-6.01-6.36-3.54-.22-6.59 2.28-6.83 5.58l-7.47 106.56zM1086.04 2344.65c-.17 3.3 2.58 6.09 6.13 6.24 3.55.15 6.55-2.4 6.72-5.7l5.27-106.67c.16-3.29-2.59-6.09-6.13-6.24-3.55-.15-6.56 2.4-6.72 5.7l-5.27 106.67z"/><path fill="#dda210" d="m2465.17 2478.5 82.62-46.78-.39-217.06-82.62 46.79z"/><path fill="#f5b501" d="m2464.78 2261.45 82.62-46.79-275.97-40.38-82.62 46.79z"/><path fill="#f9d980" d="m2188.81 2221.07.39 217.05 275.97 40.38-.39-217.05z"/><path fill="#dda210" d="m1845.67 2478.5 82.62-46.78-.39-217.06-82.62 46.79z"/><path fill="#f5b501" d="m1845.28 2261.45 82.62-46.79-275.97-40.38-82.62 46.79z"/><path fill="#f9d980" d="m1569.31 2221.07.39 217.05 275.97 40.38-.39-217.05z"/><path fill="#f5b501" d="m2159.83 2523.03 82.62-46.78-.39-217.05-82.62 46.78z"/><path fill="#f9d980" d="m2159.44 2305.98 82.62-46.78-275.97-40.38-82.62 46.79z"/><path fill="#ffca03" d="m1883.47 2265.61.39 217.05 275.97 40.37-.39-217.05z"/><path fill="#f5b501" d="m1531.5 2509.86 82.62-46.79-.39-217.05-82.61 46.79z"/><path fill="#f9d980" d="m1531.12 2292.81 82.61-46.79-275.97-40.38-82.61 46.79z"/><path fill="#ffca03" d="m1255.15 2252.43.38 217.05 275.97 40.38-.38-217.05z"/><path fill="#f15a24" d="M1365.68 2432.21c-9.26-3.94-16.77-8.35-22.56-13.22l11.28-22.07c5.44 4.37 11.74 8.23 18.91 11.59 7.17 3.36 14.23 5.65 21.17 6.88 13.19 2.33 19.78.37 19.78-5.89 0-3.3-1.88-6.08-5.64-8.33-3.76-2.26-9.8-5-18.13-8.24-9.14-3.48-16.77-6.84-22.9-10.07-6.13-3.23-11.4-7.59-15.79-13.09-4.4-5.5-6.59-12.26-6.59-20.28 0-7.03 2.02-13.02 6.07-17.96 4.05-4.94 10.09-8.35 18.13-10.22 8.04-1.88 17.9-1.78 29.58.29 7.98 1.41 15.85 3.66 23.6 6.73 7.75 3.07 14.57 6.78 20.48 11.12l-10.58 22.35c-11.57-7.98-22.79-12.93-33.66-14.86-6.83-1.21-11.8-1.12-14.92.24-3.12 1.37-4.68 3.6-4.68 6.67 0 3.08 1.85 5.71 5.55 7.9 3.7 2.19 9.66 4.84 17.87 7.94 9.25 3.51 16.92 6.87 22.99 10.08 6.07 3.22 11.34 7.55 15.79 13.01 4.45 5.46 6.68 12.2 6.68 20.22 0 6.92-2.03 12.82-6.07 17.71-4.05 4.89-10.12 8.29-18.22 10.21-8.1 1.92-17.93 1.85-29.5-.19-9.85-1.73-19.39-4.57-28.64-8.52zM1728.05 2381.66l-51.36-6.61-9.54 21.19-35.05-4.51 53.62-108.48 33.83 4.35 53.79 122.29-35.74-4.6-9.55-23.63zm-10.06-25.35-15.62-38.93-15.62 34.91 31.24 4.02zM1975.49 2326.52l34.36 5.15v89.49l57.96 8.68v25.88l-92.31-13.83v-115.37zM2384.9 2379.99v25.22l-97.52-11.23V2278.6l95.26 10.97v25.22l-61.25-7.06v19.45l53.97 6.22v24.39l-53.97-6.22v21.09l63.51 7.33z"/></svg>