<svg xmlns="http://www.w3.org/2000/svg" viewBox="0 0 493.56 455.794"><g data-name="Layer 2"><g data-name="Layer 1"><path fill="none" stroke="#afafaf" stroke-miterlimit="10" d="m115.308 236.547 72.36-.065M151.488 236.514l.017 18.375M108.845 254.927l59.76-.053M124.685 254.913l.013 15.12M111.738 270.045l51.12-.046M124.668 236.538l-.014-15.465M167.148 236.5l-.014-15.465M168.618 270.167l-.014-15.465"/><path fill="#dae0e0" d="M257.457 8.025c51.101 13.753 72.435-15.885 119.317-5.942 51.067 10.83 79.272 57.344 81.953 61.913 32.9 56.07 31.77 122.803-8.647 156.417-22.43 18.655-45.13 18.762-115.575 49.46-53.296 23.223-78.416 51.601-89.414 57.837-56.052 31.78-120.267 12.027-167.488-26.823-13.142-10.813-76.405-63.433-39.318-140.143 11.485-23.756 12.588-12.92 63.502-79.113 53.625-69.717 118.772-83.537 155.67-73.606Z"/><path fill="#f9f5c5" d="m476.46 453.37-24.04.022-.344-386.848 24.064 26.979.32 359.847z"/><path fill="#542628" d="m452.42 453.428-198.245 1.14-.346-388.775 198.247.787.344 386.848z"/><path fill="#381719" d="M300.911 118.956c2.51 26.92 3.822 53.842 4.774 80.764q1.356 40.382 1.368 80.766.05 40.384-1.208 80.769c-.9 26.923-2.17 53.847-4.646 80.772-2.525-26.92-3.842-53.842-4.79-80.764q-1.355-40.382-1.352-80.766-.026-40.384 1.224-80.769c.904-26.923 2.169-53.847 4.63-80.772ZM380.92 108.471c2.51 28.83 3.825 57.66 4.778 86.492q1.359 43.247 1.374 86.495.053 43.248-1.204 86.497c-.898 28.833-2.166 57.666-4.64 86.5-2.527-28.83-3.846-57.66-4.795-86.492q-1.358-43.247-1.358-86.495-.028-43.248 1.22-86.497c.902-28.833 2.165-57.666 4.624-86.5ZM418.978 91.848c2.511 28.83 3.826 57.66 4.779 86.492q1.358 43.247 1.373 86.495.053 43.248-1.203 86.497c-.898 28.833-2.166 57.666-4.64 86.5-2.527-28.83-3.846-57.66-4.796-86.492q-1.357-43.247-1.357-86.495-.028-43.248 1.22-86.497c.901-28.833 2.165-57.666 4.624-86.5ZM336.463 91.922c2.511 28.83 3.826 57.66 4.779 86.491q1.358 43.247 1.373 86.495.053 43.248-1.203 86.497c-.898 28.833-2.166 57.666-4.641 86.5-2.526-28.83-3.845-57.66-4.795-86.491q-1.357-43.247-1.357-86.495-.028-43.248 1.22-86.497c.901-28.833 2.164-57.666 4.624-86.5Z"/><path fill="#3ca05d" d="M208.47 406.006a126.466 126.466 0 0 1-26.834-13.156c-.58-.378-8.969-5.95-13.78-14.632-1.007-1.815-2.034-4.086-1.43-6.589a7.773 7.773 0 0 1 5.929-5.619c2.013-.344 3.79.426 6.173 1.46 2.877 1.247 3.623 2.344 5.461 2.191a4.261 4.261 0 0 0 3.559-2.2c1.11-2.702-2.789-6.312-3.092-6.587-2.484-2.251-3.778-1.463-8.074-3.654a27.726 27.726 0 0 1-7.839-6.095c-2.415-2.501-3.784-3.962-3.566-5.854a5.349 5.349 0 0 1 3.795-4.153c2.495-.685 3.624 1.361 6.41.727 1.637-.374 3.537-1.604 3.795-3.177.258-1.575-1.228-2.901-3.566-5.122-8.393-7.973-9.645-10.252-10.217-11.462-.803-1.7-2.111-4.472-1.193-7.566a8.04 8.04 0 0 1 4.98-5.374c5.033-1.489 11.855 4.213 14.488 9.994 2.2 4.831 3.569 8.54 3.569 8.54a12.183 12.183 0 0 0 2.852 4.635c.658.649 2.153 2.124 3.325 1.705.755-.27.877-1.146 1.659-3.174 1.167-3.027 1.75-4.54 2.844-5.128 1.655-.891 4.23.266 5.698 1.703 2.313 2.263 2.349 5.672 2.382 8.785.03 2.844-.44 2.855-.943 8.055a60.899 60.899 0 0 0-.23 8.787c.273 5.72 1.178 6.53 1.668 6.832 1.199.739 2.727.171 4.51-.492a15.997 15.997 0 0 0 6.405-4.643c2.442-2.79 2.056-3.853 3.556-4.885a5.928 5.928 0 0 1 4.343-.779 12.034 12.034 0 0 1 8.717 6.187 20.972 20.972 0 0 1 .952 1.902c3.652 8.332.83 16.714-.693 21.235-5.634 16.73-21.15 25.318-25.612 27.603Z"/><path fill="#4fba75" d="M208.47 406.006s-3.821-47.067-40.7-96.345l.002-.002a8.46 8.46 0 0 0-3.774 4.858c-.914 3.092.394 5.864 1.193 7.565.575 1.213 1.83 3.49 10.218 11.462 2.342 2.222 3.827 3.55 3.565 5.123-.256 1.573-2.154 2.802-3.795 3.176-2.782.64-3.912-1.407-6.41-.727a5.36 5.36 0 0 0-3.794 4.153c-.216 1.892 1.15 3.355 3.565 5.855a27.804 27.804 0 0 0 7.84 6.095c4.3 2.192 5.592 1.405 8.073 3.653.304.278 4.204 3.888 3.092 6.588a4.24 4.24 0 0 1-3.559 2.2c-1.833.157-2.579-.94-5.461-2.192-2.382-1.029-4.156-1.8-6.173-1.46a7.78 7.78 0 0 0-5.93 5.62c-.598 2.502.427 4.772 1.43 6.588 4.815 8.681 13.2 14.253 13.781 14.633a126.27 126.27 0 0 0 26.835 13.156"/><path fill="#4fba75" d="M205.361 388.703a60.027 60.027 0 0 0 5.67-3.708 39.389 39.389 0 0 0 5.099-4.394 22.127 22.127 0 0 0 4-5.344 13.705 13.705 0 0 0 1.637-6.451 12.024 12.024 0 0 1-.104 3.41 13.936 13.936 0 0 1-1.072 3.269 21.084 21.084 0 0 1-3.983 5.582 35.12 35.12 0 0 1-5.282 4.346 36.424 36.424 0 0 1-5.965 3.29ZM192.825 352.206q1.399-2.019 2.645-4.11a41.78 41.78 0 0 0 2.283-4.286 21.69 21.69 0 0 0 2.367-9.318 13.515 13.515 0 0 1-.159 4.919 23.897 23.897 0 0 1-1.603 4.681 33.06 33.06 0 0 1-2.456 4.28 28.62 28.62 0 0 1-3.077 3.834Z"/><path fill="#c0e2cc" d="M205.385 388.444a35.669 35.669 0 0 1-6.621 1.206 34.133 34.133 0 0 1-6.76-.045 20.22 20.22 0 0 1-6.521-1.849 13.248 13.248 0 0 1-2.825-1.891 11.598 11.598 0 0 1-2.136-2.61 13.086 13.086 0 0 0 5.182 4.037 21.165 21.165 0 0 0 6.38 1.65 38.235 38.235 0 0 0 6.645.197 58.885 58.885 0 0 0 6.656-.695ZM193.262 351.8a27.414 27.414 0 0 1-4.724-1.059 31.542 31.542 0 0 1-4.512-1.804 22.845 22.845 0 0 1-4.084-2.662 13.05 13.05 0 0 1-3.072-3.747 20.67 20.67 0 0 0 7.457 5.813 39.665 39.665 0 0 0 4.378 1.916q2.241.851 4.557 1.543Z"/><path fill="#c0e2cc" d="M208.094 402.839c-.573-3.95-1.424-7.852-2.343-11.731-.945-3.874-1.957-7.731-3.136-11.54a217.483 217.483 0 0 0-8.098-22.485 222.364 222.364 0 0 0-10.361-21.537c-3.748-7.04-8.04-13.771-12.436-20.434l3.406 4.925c1.124 1.65 2.309 3.26 3.334 4.975 2.095 3.4 4.257 6.763 6.146 10.286a209.752 209.752 0 0 1 10.527 21.527l2.25 5.556 2.06 5.63c1.313 3.774 2.59 7.563 3.664 11.413 1.121 3.835 2.082 7.716 2.961 11.612.815 3.91 1.56 7.838 2.026 11.803Z"/><path fill="#601f24" d="m226.307 454.593-43.794.039-11.778-48.354 67.264-.06-11.692 48.375z"/><rect width="77.921" height="8.193" x="165.403" y="398.353" fill="#7a3c43" rx="4.04"/><path fill="#139da0" d="m492.561 455.356-491.56.438a1 1 0 0 1-.002-2l491.56-.438a1 1 0 0 1 .002 2Z"/><path fill="#e8e377" d="m181.976 230.023 43.336-21.06 12.692 41.936a19.71 19.71 0 0 1-11.06 23.809l-15.104 6.513a19.71 19.71 0 0 1-27.468-16.732Z"/><path fill="#cec65f" d="M207.155 221.187c-.436-17.687-6.316-21.306-6.376-21.34l.398-.698c.258.146 6.331 3.786 6.781 22.018Z"/><path fill="#f6b98a" d="m188.885 209.151 13.356.397a4.388 4.388 0 0 0 .761-.042c1.641-.236 8.032-1.259 10.092-3.116 0 0 12.084-10.136-.698-12.205a11.697 11.697 0 0 0-9.232 2.558q-.106.084-.215.167a7.062 7.062 0 0 1-5.652 1.321c-2.219-.42-6.176-.88-9.338.308-2.631.99-4.103 4.264-3.216 7.448l.01.035a4.402 4.402 0 0 0 4.132 3.129Z"/><path fill="#e8a77c" d="M190.11 205.207q1.496-.015 2.97-.171a23.433 23.433 0 0 0 2.917-.477 16.962 16.962 0 0 0 2.806-.89 13.852 13.852 0 0 0 2.572-1.46 9.528 9.528 0 0 1-2.443 1.741 14.614 14.614 0 0 1-2.845 1 17.022 17.022 0 0 1-5.976.257Z"/><path fill="#49260b" d="m52.488 279.75-11.75 155.702s7.913 10.401 23.518 2.678L81.76 288.925l5.494.574 7.36 147.736s11.667 6.64 21.877-.308l-1.232-156.802-62.717-.424a.054.054 0 0 0-.054.05Z"/><path fill="#2d1505" d="M115.261 282.535q-.136-1.206-.257-2.411l-62.247-.422q-.15 1.436-.318 2.873l20.991 4.203a75.172 75.172 0 0 0 18.543 1.385c22.25-1.123 23.288-5.628 23.288-5.628Z"/><path fill="#e82a53" d="m116.782 167.126-17.627-5.913-13.6 10.212-16.102-10.186-17.959 5.92a16.97 16.97 0 0 0-6.83 4.257c-3.488 3.568-9.516 10.864-18.712 25.513l14.386 11.845 9.32-11.317s7.672 41.492 2.798 82.712l20.972 4.2a75.174 75.174 0 0 0 18.543 1.385c22.25-1.124 23.288-5.629 23.288-5.629-4.663-41.244 3.203-82.692 3.203-82.692l9.262 11.364 14.446-11.771c-9.121-14.696-15.112-22.024-18.58-25.61a16.97 16.97 0 0 0-6.808-4.29Z"/><path fill="#874106" d="m105.086 111.67 2.812.602-.103 1.88a11.834 11.834 0 0 1-.839 3.77l-1.056 2.624s-.588.099-.837-2.4a51.145 51.145 0 0 1 .023-6.475Z"/><path fill="#874106" d="M61.914 116.335c-.878 5.557 2.78 12.708 5.215 12.331 2.269-.35 40.296-15.61 40.33-16.34.06-1.317-3.044-14.285-12.72-17.13-8.33-2.45-20.428-.085-24.184 2.665-1.623 1.188-7.75 12.832-8.641 18.474Z"/><path fill="#f6b98a" d="M68.85 113.438s-3.886 7.637-5.775 8.293c0 0-7.318 7.524 2.9 8.864 0 0 .595 19.66 12.356 22.54l.004 5.028a2 2 0 0 1-1.698 1.979l-7.184 1.097s15.845 23.887 29.702-.026l-4.738-1.032a2 2 0 0 1-1.566-1.771l-.45-4.901s14.452-5.217 12.895-22.37c0 0 8.74-4.615.604-10.593 0 0-.682.547-.85-3.444q-.01-.24-.018-.5a7.467 7.467 0 0 0-5.119-6.867c-8.498-2.808-25.068-6.624-31.063 3.703ZM39.97 208.308l-7.27 7.91 19.775 27.137s-3.405 7.381-3.957 10.022a.574.574 0 0 1-.863.373c-2.822-1.73-12.774-8.827-29.694-31.349 0 0-7.449-8.203 8.69-24.907Z"/><path fill="#f6b98a" d="M48.053 253.845c4.874 8.19 10.743-.452 10.743-.452l2.478.837a10.557 10.557 0 0 0 10.018-1.623q.282-.228.548-.477c3.275-3.056 1.571-5.637-.644-7.348a12.422 12.422 0 0 0-6.645-2.479c-11.265-.872-12.269 1.265-12.269 1.265a20.95 20.95 0 0 0-3.889 8.675Z"/><path fill="#e82a53" d="m94.614 437.235.011 12.625 49.922-.044a5.68 5.68 0 0 0-3.668-6.31l-9.016.876a10 10 0 0 1-6.459-1.597l-8.913-5.858ZM64.29 437.262l.011 12.625-49.922.045a5.68 5.68 0 0 1 3.657-6.316l8.092.77a10 10 0 0 0 7.718-2.594l6.893-6.34Z"/><path fill="#874106" d="M14.381 449.91h49.922v3.855H14.381zM94.66 449.838h49.922v3.855H94.66z"/><path fill="#e8e377" d="m68.577 130.593.01 12.605s4.544 15.629 23.815 10.31c0 0 13.272-3.281 12.95-21.64 0 0-13.501-1.874-36.775-1.275ZM68.577 130.593a48.77 48.77 0 0 0-1.29-2.246 23.16 23.16 0 0 0-1.434-2.084 14.447 14.447 0 0 0-1.715-1.818 11.71 11.71 0 0 0-2.127-1.406 5.916 5.916 0 0 1 2.5.903 8.82 8.82 0 0 1 1.973 1.825 10.473 10.473 0 0 1 2.093 4.826Z"/><path fill="#020202" d="M75.94 120.573a6.025 6.025 0 0 1 3.323-1.12 5.6 5.6 0 0 1 1.784.223 3.854 3.854 0 0 1 1.543.89 12.062 12.062 0 0 0-3.297-.312c-1.093.039-2.18.194-3.353.319ZM95.745 120.555a6.845 6.845 0 0 1 3.731-1 5.754 5.754 0 0 1 1.95.395 3.701 3.701 0 0 1 1.548 1.215 8.405 8.405 0 0 0-1.738-.618 10.835 10.835 0 0 0-1.78-.189c-1.206-.03-2.42.101-3.71.197Z"/><ellipse cx="78.837" cy="126.897" fill="#020202" rx="1.157" ry="2.385"/><ellipse cx="98.209" cy="126.88" fill="#020202" rx="1.157" ry="2.385"/><path fill="#cec65f" d="M75.953 135.231q2.855.809 5.74 1.378a44.713 44.713 0 0 0 5.806.784 25.199 25.199 0 0 0 5.809-.191 14.985 14.985 0 0 0 5.458-1.991 12.19 12.19 0 0 1-5.34 2.597 20.348 20.348 0 0 1-5.98.386 30.644 30.644 0 0 1-5.889-.985 32.275 32.275 0 0 1-5.604-1.978ZM75.569 139.893q2.855.808 5.74 1.378a44.718 44.718 0 0 0 5.805.784 25.197 25.197 0 0 0 5.809-.191 14.984 14.984 0 0 0 5.458-1.992 12.19 12.19 0 0 1-5.34 2.598 20.35 20.35 0 0 1-5.98.386 30.644 30.644 0 0 1-5.888-.986 32.274 32.274 0 0 1-5.604-1.977ZM75.573 145.335q2.855.808 5.74 1.378a44.718 44.718 0 0 0 5.806.784 25.197 25.197 0 0 0 5.809-.192 14.985 14.985 0 0 0 5.458-1.99 12.19 12.19 0 0 1-5.34 2.597 20.35 20.35 0 0 1-5.98.385 30.644 30.644 0 0 1-5.889-.985 32.274 32.274 0 0 1-5.604-1.977Z"/><path fill="#f6b98a" d="m192.736 208.356-34.659 22.518a5.721 5.721 0 0 1-6.987-.58l-23.366-21.495 13.707-11.168 15.315 17.077 28.797-14.007Z"/><path fill="#e82a53" d="M62.433 122.478s33.052-16.898 44.103-.919v-.002a21.011 21.011 0 0 0 1.142-7.858c-.552-12.2-11.441-21.616-24.324-21.033S60.477 103.61 61.03 115.81a19.71 19.71 0 0 0 1.404 6.668"/><path fill="#c91745" d="m66.908 120.444 2.945-.984c10.372-4.03 28.926-9.117 36.683 2.1v-.003c.856-2.467 1.94-5.127 1.815-7.87-.11-2.453-2.265-7.37-3.4-9.445-32.028-2.558-38.043 16.202-38.043 16.202Z"/><path fill="#e82a53" d="M66.908 120.444s6.985-16.063 30.368-13.1c0 0 40.468 2.44 22.35 12.906a32.719 32.719 0 0 1-20.01 4.056Z"/><path fill="#c91745" d="M114.133 112.77a4.725 4.725 0 0 1-1.617 2.662 11.736 11.736 0 0 1-2.661 1.735 23.187 23.187 0 0 1-6.058 1.752 41.033 41.033 0 0 1-6.255.48c-1.045-.024-2.088.022-3.129-.06-1.04-.085-2.08-.143-3.115-.252 2.083-.13 4.155-.143 6.22-.306 1.034-.051 2.06-.159 3.087-.262 1.032-.067 2.044-.253 3.064-.392a29.043 29.043 0 0 0 5.938-1.523c.46-.21.932-.41 1.382-.645a10.14 10.14 0 0 0 1.276-.827 4.867 4.867 0 0 0 1.868-2.362Z"/><path fill="#2d1505" d="M64.069 284.903q-.108.794-.243 1.59l-.21-.052q.212-.768.453-1.538ZM63.486 288.07l-.441 1.554-.487-.168.543-1.501.385.115zM62.54 291.16a61.044 61.044 0 0 1-.583 1.508l-.65-.287c.21-.485.423-.97.648-1.45ZM61.294 294.148l-.751 1.441-.687-.386.75-1.397.688.342zM59.714 296.989l-.917 1.343-.633-.455.875-1.315.675.427zM57.791 299.612l-1.098 1.205-.497-.469 1.021-1.207.574.471zM55.494 301.921l-1.282 1.002-.283-.366 1.177-1.062.388.426zM52.842 303.797l-1.447.729-.059-.113 1.337-.88.169.264zM100.409 285.837l.076 1.604-.033.001-.043-1.605zM100.562 289.046l.076 1.604-.1.004-.043-1.606.067-.002zM100.714 292.255l.076 1.604-.165.006-.043-1.605.132-.005zM100.867 295.464l.076 1.604-.232.009-.043-1.606.199-.007zM101.019 298.673l.077 1.604-.299.011-.043-1.605.265-.01zM101.172 301.882l.076 1.604-.364.014-.043-1.606.331-.012zM101.324 305.091l.067 1.605-.411.015-.053-1.605.397-.015zM101.457 308.301l.065 1.605-.434.016-.054-1.606.423-.015zM101.587 311.511l.066 1.605-.457.017-.054-1.606.445-.016zM101.718 314.72l.066 1.605-.48.018-.054-1.605.468-.018zM101.849 317.93l.066 1.605-.503.019-.054-1.605.491-.019zM101.98 321.14l.065 1.605-.525.02-.054-1.606.514-.019zM102.111 324.35l.065 1.605-.548.02-.054-1.605.537-.02zM102.242 327.56l.065 1.605-.571.021-.054-1.605.56-.021zM102.373 330.77l.065 1.605-.594.022-.054-1.606.583-.021zM102.504 333.98l.065 1.605-.617.022-.054-1.605.606-.022zM102.634 337.189l.066 1.605-.64.024-.054-1.605.628-.024zM102.765 340.399l.066 1.605-.663.025-.054-1.605.651-.025zM102.896 343.609l.066 1.605-.686.026-.054-1.606.674-.025zM103.027 346.819l.065 1.605-.708.026-.054-1.605.697-.026zM103.158 350.029l.065 1.605-.731.027-.054-1.605.72-.027zM103.289 353.239l.065 1.605-.754.028-.054-1.606.743-.027zM103.42 356.449l.065 1.605-.777.028-.054-1.605.766-.028zM103.55 359.658l.066 1.605-.8.03-.054-1.605.788-.03zM103.673 362.869l.054 1.605-.783.029-.065-1.605.794-.029zM103.781 366.079l.054 1.606-.76.028-.065-1.605.771-.029zM103.889 369.29l.054 1.605-.737.028-.065-1.605.748-.028zM103.997 372.501l.054 1.605-.714.027-.065-1.605.725-.027zM104.105 375.711l.054 1.606-.691.026-.065-1.605.702-.027zM104.213 378.922l.054 1.606-.668.024-.065-1.605.679-.025zM104.321 382.133l.054 1.605-.645.024-.066-1.605.657-.024zM104.429 385.344l.054 1.605-.622.023-.066-1.605.634-.023zM104.537 388.554l.054 1.606-.599.022-.066-1.605.611-.023zM104.645 391.765l.054 1.605-.576.022-.066-1.605.588-.022zM104.753 394.976l.053 1.605-.552.021-.066-1.605.565-.021zM104.86 398.186l.054 1.606-.529.02-.066-1.605.541-.021zM104.968 401.397l.054 1.606-.506.018-.066-1.605.518-.019zM105.076 404.608l.054 1.605-.483.018-.066-1.605.495-.018zM105.184 407.819l.054 1.605-.461.017-.065-1.605.472-.017zM105.292 411.029l.054 1.606-.438.016-.065-1.605.449-.017zM105.4 414.24l.054 1.605-.415.016-.065-1.605.426-.016zM105.508 417.451l.045 1.605-.374.014-.074-1.604.403-.015zM105.596 420.662l.043 1.606-.307.011-.076-1.604.34-.013zM105.683 423.874l.043 1.605-.241.009-.077-1.604.275-.01zM105.769 427.085l.043 1.606-.174.006-.077-1.604.208-.008zM105.855 430.297l.043 1.605-.108.004-.076-1.604.141-.005zM105.941 433.508l.043 1.606-.041.001-.076-1.604.074-.003zM106.027 436.72l.009.354-.016-.354h.007z"/><path fill="#cec65f" d="M197.437 224.945c.841-.288 1.604-.48 2.36-.732.766-.227 1.47-.523 2.317-.814a3.578 3.578 0 0 1-2.074 1.58 3.865 3.865 0 0 1-2.603-.034ZM205.028 221.613c.956-.156 1.818-.26 2.665-.46a10.835 10.835 0 0 0 1.252-.352c.42-.136.826-.316 1.286-.493a3.08 3.08 0 0 1-1.006 1.053 4.061 4.061 0 0 1-1.354.574 4.129 4.129 0 0 1-2.843-.322Z"/><path fill="#cec65f" d="M199.282 224.32c-3.76-17.102-2.925-25.227-.888-27.129a1.398 1.398 0 0 1 1.384-.316 1.548 1.548 0 0 1 1.043 1.175l-.785.171a.753.753 0 0 0-.498-.58.596.596 0 0 0-.597.138c-1.44 1.344-2.823 8.411 1.126 26.368Z"/><path fill="#e8a77c" d="M198.362 196.977a19.566 19.566 0 0 0-8.711.116c-3.313 2.152-3.993 4.118-3.993 4.118s-.422 2.04 3.206 2.49c4.736.587 7.074-5.9 7.074-5.9 2.128-.485 2.956-.724 2.424-.824Z"/><path fill="#f6b98a" d="M185.722 200.655s.493-2.54 6.033-5.246a1.698 1.698 0 0 1 .687-.172 68.553 68.553 0 0 0 8.833-.973.484.484 0 0 1 .552.337c.182.67-.35 2.105-6.756 3.561 0 0-2.83 4.856-6.47 5.187s-2.879-2.694-2.879-2.694Z"/><path fill="#104f54" d="m405.257 279.437 12.027 155.68s-7.894 10.415-23.513 2.72L376 288.662l-5.493.584-7.096 147.749s-11.656 6.66-21.878-.27l.953-156.803 62.716-.536a.054.054 0 0 1 .054.05Z"/><path fill="#052526" d="M342.49 282.332q.133-1.205.252-2.411l62.246-.532q.153 1.435.323 2.871l-20.984 4.241a75.172 75.172 0 0 1-18.54 1.418c-22.252-1.083-23.298-5.587-23.298-5.587Z"/><path fill="#e8e377" d="m340.763 166.927 17.617-5.945 13.618 10.188 16.083-10.214 17.97 5.888a16.97 16.97 0 0 1 6.838 4.244c3.493 3.562 9.534 10.848 18.756 25.48l-14.364 11.87-9.34-11.3s-7.599 41.506-2.651 82.717l-20.965 4.237a75.173 75.173 0 0 1-18.54 1.418c-22.252-1.084-23.298-5.587-23.298-5.587 4.59-41.253-3.35-82.687-3.35-82.687l-9.242 11.38-14.467-11.744c9.095-14.713 15.073-22.05 18.535-25.642a16.97 16.97 0 0 1 6.8-4.303Z"/><path fill="#ed5d83" d="M365.38 166.219h-.939l.107 119.223c.41.023.812.047 1.237.068a75.037 75.037 0 0 0 17.224-1.173l-.105-118.134-3.09.003-7.816 4.964Z"/><path fill="#f6b98a" d="m268.734 209.08-13.354.421a4.387 4.387 0 0 1-.762-.04c-1.641-.234-8.034-1.246-10.097-3.1 0 0-12.103-10.113.676-12.205a11.697 11.697 0 0 1 9.237 2.541q.106.084.215.167a7.062 7.062 0 0 0 5.654 1.311c2.218-.424 6.174-.892 9.339.291 2.633.985 4.11 4.257 3.229 7.443l-.01.034a4.402 4.402 0 0 1-4.127 3.137Z"/><path fill="#e8a77c" d="M267.502 205.138a17.022 17.022 0 0 1-5.977-.246 14.615 14.615 0 0 1-2.847-.995 9.528 9.528 0 0 1-2.446-1.737 13.853 13.853 0 0 0 2.575 1.456 16.964 16.964 0 0 0 2.807.884 23.435 23.435 0 0 0 2.918.472q1.474.153 2.97.166Z"/><path fill="#874106" d="m353.556 112.048-2.872.154-.192 1.873a11.834 11.834 0 0 0 .239 3.856l.633 2.756s.565.19 1.201-2.239a51.147 51.147 0 0 0 .99-6.4Z"/><path fill="#874106" d="M395.54 116.038c.888 5.555-2.757 12.713-5.193 12.34-2.27-.346-39.662-15.12-39.697-15.85-.063-1.317 2.357-14.708 12.027-17.57 8.326-2.465 20.429-.121 24.19 2.622 1.625 1.185 7.772 12.817 8.673 18.458Z"/><path fill="#f6b98a" d="M388.599 113.153s3.9 7.63 5.79 8.283c0 0 7.33 7.51-2.884 8.87 0 0-.56 19.66-12.316 22.562l.005 5.027a2 2 0 0 0 1.701 1.976l7.186 1.084s-15.802 23.916-29.701.027l4.735-1.04a2 2 0 0 0 1.563-1.774l.44-4.902s-14.46-5.191-12.933-22.348c0 0-8.748-4.599-.623-10.59 0 0 .683.545.844-3.447q.01-.239.017-.5a7.467 7.467 0 0 1 5.106-6.875c8.493-2.823 25.057-6.67 31.07 3.647Z"/><path fill="#2d1505" d="m363.412 436.996.011 12.625-49.922.044a5.68 5.68 0 0 1 3.656-6.315l9.019.859a10 10 0 0 0 6.455-1.608l8.903-5.875ZM393.736 436.969l.01 12.625 49.923-.044a5.68 5.68 0 0 0-3.668-6.31l-8.09.786a10 10 0 0 1-7.723-2.582l-6.904-6.327Z"/><path fill="#874106" d="M393.749 449.572h49.922v3.855h-49.922zM313.469 449.643h49.922v3.855h-49.922z"/><path fill="#020202" d="M381.522 120.3c-1.174-.122-2.26-.275-3.354-.312a12.062 12.062 0 0 0-3.296.319 3.854 3.854 0 0 1 1.542-.894 5.6 5.6 0 0 1 1.783-.227 6.025 6.025 0 0 1 3.325 1.115ZM361.717 120.318c-1.292-.093-2.506-.223-3.712-.19a10.834 10.834 0 0 0-1.779.192 8.407 8.407 0 0 0-1.737.622 3.701 3.701 0 0 1 1.545-1.218 5.754 5.754 0 0 1 1.95-.398 6.846 6.846 0 0 1 3.733.992Z"/><ellipse cx="378.636" cy="126.63" fill="#020202" rx="1.157" ry="2.385"/><ellipse cx="359.265" cy="126.648" fill="#020202" rx="1.157" ry="2.385"/><path fill="#f6b98a" d="m264.882 208.291 34.699 22.457a5.721 5.721 0 0 0 6.987-.593l23.327-21.536-13.727-11.143-15.284 17.104-28.823-13.956Z"/><path fill="#052526" d="M393.685 284.61a51.041 51.041 0 0 0 1.295 3.774.292.292 0 0 1-.544.211.325.325 0 0 1-.01-.031 24.989 24.989 0 0 1-.74-3.954ZM396.532 292.03a161.51 161.51 0 0 1 1.855 3.479l.029.054a.495.495 0 0 1-.879.459l-.002-.005a170.384 170.384 0 0 1-1.81-3.629.44.44 0 0 1 .781-.405ZM400.609 298.746a24.56 24.56 0 0 0 2.657 2.884.34.34 0 0 1-.439.521 19.61 19.61 0 0 1-2.936-2.817.464.464 0 0 1 .707-.601ZM406.401 304.045l.795.483-.875-.33a.087.087 0 1 1 .062-.163ZM357.347 285.608l-.09 4a.051.051 0 0 1-.103-.003v-.001ZM357.167 293.607l-.09 3.999a.154.154 0 0 1-.309-.007v-.004l.193-3.996a.103.103 0 0 1 .206.007ZM356.986 301.605l-.093 4a.254.254 0 1 1-.508-.012v-.007l.19-3.995a.206.206 0 0 1 .411.014ZM356.78 309.603l-.113 3.998a.312.312 0 1 1-.623-.017v-.005l.17-3.996a.283.283 0 0 1 .566.02ZM356.555 317.6l-.113 3.998a.37.37 0 1 1-.739-.02v-.006l.17-3.996a.34.34 0 0 1 .682.024ZM356.33 325.597l-.117 3.998a.424.424 0 0 1-.847-.024v-.006l.167-3.996a.399.399 0 0 1 .796.028ZM356.08 333.593l-.131 3.998a.443.443 0 0 1-.885-.03v-.001l.15-3.997a.433.433 0 0 1 .867.03ZM355.817 341.589l-.132 3.998a.462.462 0 0 1-.924-.03v-.003l.151-3.997a.452.452 0 0 1 .905.032ZM355.552 349.585l-.132 3.997a.481.481 0 1 1-.961-.031v-.003l.151-3.997a.471.471 0 0 1 .942.034ZM355.288 357.58l-.132 3.998a.5.5 0 0 1-1-.033v-.002l.152-3.998a.49.49 0 0 1 .98.035ZM355.005 365.575l-.152 3.997a.48.48 0 0 1-.96-.034l.132-3.998a.49.49 0 1 1 .98.033ZM354.702 373.57l-.151 3.997a.461.461 0 0 1-.922-.033l.132-3.998a.47.47 0 0 1 .941.031ZM354.4 381.564l-.152 3.997a.442.442 0 0 1-.883-.031l.132-3.998a.452.452 0 0 1 .903.03ZM354.097 389.558l-.151 3.997a.423.423 0 0 1-.845-.03l.132-3.998a.432.432 0 0 1 .864.029ZM353.777 397.552l-.17 3.996a.366.366 0 0 1-.733-.026l.113-3.998a.396.396 0 1 1 .79.022ZM353.436 405.545l-.17 3.996a.308.308 0 0 1-.617-.022l.112-3.998a.337.337 0 1 1 .675.019ZM353.094 413.538l-.17 3.996a.25.25 0 0 1-.5-.018l.112-3.998a.28.28 0 0 1 .559.016ZM352.73 421.53l-.193 3.995a.147.147 0 0 1-.293-.01l.09-4a.198.198 0 1 1 .397.01ZM352.344 429.521l-.194 3.996a.043.043 0 0 1-.086-.003l.09-4a.095.095 0 1 1 .19.005Z"/><path fill="#e8a77c" d="M259.236 196.923a19.566 19.566 0 0 1 8.711.1c3.317 2.146 4 4.11 4 4.11s.426 2.041-3.2 2.497c-4.736.595-7.085-5.888-7.085-5.888-2.13-.48-2.957-.718-2.426-.82ZM368.971 129.024a12.91 12.91 0 0 1-.027 3.278 10.295 10.295 0 0 1-.911 3.205 1.775 1.775 0 0 0 .501 2.276c.686.508 1.809.045 2.725-.49a4.059 4.059 0 0 1-1.266 1.095 2.002 2.002 0 0 1-1.838.077 2.346 2.346 0 0 1-1.214-1.484 2.84 2.84 0 0 1 .187-1.9 15.79 15.79 0 0 0 1.053-2.93Z"/><path fill="#a03041" d="m364.304 142.91 10.17-.01s-3.59 11.974-10.17.01Z"/><path fill="#cc546b" d="M372.846 146.265a2.252 2.252 0 0 0-3.452 1.909c1.457.26 2.613-.72 3.452-1.91Z"/><path fill="#e8e377" d="m388.081 160.956 6.937 9.467-5.756 4.415 4.6 11.156-10.926 15.849-.031-35.063 5.176-5.824z"/><path fill="#cec65f" d="m388.081 160.956 6.937 9.467-5.756 4.415 4.6 11.156-10.926 15.849-.031-35.063 5.176-5.824zM358.38 160.982l-6.043 11.639 5.764 4.404-4.58 11.165 10.954 15.83-.031-35.483-6.064-7.555z"/><circle cx="386.637" cy="207.915" r="1.755" fill="#104f54"/><circle cx="386.649" cy="221.822" r="1.755" fill="#104f54"/><circle cx="386.661" cy="235.728" r="1.755" fill="#104f54"/><circle cx="386.689" cy="266.324" r="1.755" fill="#104f54"/><circle cx="386.702" cy="281.158" r="1.755" fill="#104f54"/><circle cx="386.675" cy="251.49" r="1.755" fill="#104f54"/><path fill="#3ca05d" d="m247.993 176.028 28.169 35.094-14.6 11.718-28.168-35.093z"/><path fill="#4fba75" d="m248.111 179.627 24.563 30.6-11.23 9.015-24.563-30.602z"/><ellipse cx="247.936" cy="190.91" fill="#3ca05d" rx="4.05" ry="3.69" transform="rotate(-38.754 247.936 190.91)"/><ellipse cx="261.62" cy="207.958" fill="#3ca05d" rx="4.05" ry="3.69" transform="rotate(-38.754 261.62 207.958)"/><path fill="#3ca05d" d="M248.074 182.887c.919.973 1.79 1.983 2.686 2.974a.234.234 0 1 1-.347.313l-.017-.021c-.774-1.089-1.57-2.159-2.322-3.266ZM253.37 188.894c.876 1.008 1.725 2.035 2.576 3.062a.462.462 0 0 1-.711.59l-.01-.011c-.818-1.053-1.637-2.105-2.431-3.177a.37.37 0 0 1 .577-.464ZM258.476 195.055l2.494 3.127a.482.482 0 0 1-.752.604l-2.514-3.111a.495.495 0 1 1 .77-.623ZM263.427 201.34l2.402 3.2a.292.292 0 0 1-.455.366l-2.606-3.038a.423.423 0 0 1 .642-.55ZM268.187 207.777c.309.423.602.86.901 1.29-.355-.386-.718-.766-1.064-1.16a.104.104 0 1 1 .157-.137ZM240.073 189.31c.918.973 1.79 1.982 2.686 2.973a.234.234 0 0 1-.347.313l-.017-.02c-.774-1.09-1.57-2.16-2.322-3.266ZM245.37 195.317c.875 1.007 1.724 2.035 2.575 3.062a.462.462 0 1 1-.712.59l-.009-.012c-.818-1.053-1.638-2.104-2.432-3.177a.37.37 0 0 1 .578-.463ZM250.475 201.477l2.494 3.128a.482.482 0 0 1-.753.604l-2.514-3.112a.495.495 0 0 1 .771-.622ZM255.426 207.762l2.402 3.2a.292.292 0 0 1-.455.366l-2.606-3.037a.423.423 0 1 1 .642-.55ZM260.185 214.2c.31.423.602.859.902 1.29-.356-.386-.718-.767-1.064-1.16a.104.104 0 1 1 .157-.138Z"/><path fill="#f6b98a" d="M271.882 200.578s-.497-2.54-6.042-5.235a1.697 1.697 0 0 0-.687-.171 68.553 68.553 0 0 1-8.835-.957.484.484 0 0 0-.55.338c-.182.67.352 2.104 6.761 3.55 0 0 2.84 4.85 6.48 5.174s2.873-2.7 2.873-2.7Z"/><path fill="#3f1e05" d="m370.803 256.163 5.29-14.74 38.967 13.983-5.29 14.74z"/><path fill="#562d11" d="m400.016 253.354 11.352 4.074-.608 1.694-11.352-4.073zM398.74 256.912l11.35 4.074-.607 1.694-11.352-4.073zM397.462 260.47l11.352 4.073-.608 1.695-11.352-4.074zM376.974 245.086l15.672 5.624-.608 1.694-15.672-5.624zM375.94 247.967l15.672 5.623-2.188 6.1-15.672-5.624z"/><path fill="#f6b98a" d="m417.648 207.972 7.283 7.896-19.725 27.173s3.417 7.375 3.974 10.014a.574.574 0 0 0 .864.372c2.82-1.734 12.758-8.85 29.638-31.401 0 0 7.434-8.217-8.734-24.892Z"/><path fill="#f6b98a" d="M409.646 253.523c-4.86 8.2-10.744-.433-10.744-.433l-2.476.842a10.557 10.557 0 0 1-10.021-1.605q-.282-.228-.55-.476c-3.279-3.05-1.58-5.634.632-7.35a12.422 12.422 0 0 1 6.64-2.49c11.264-.892 12.272 1.243 12.272 1.243a20.95 20.95 0 0 1 3.904 8.668Z"/><circle cx="275.815" cy="231.374" r="10.792" fill="#381719"/><path fill="none" stroke="#afafaf" stroke-miterlimit="10" d="m195.403 24.749 72.359-.064M231.582 24.717l.017 18.375M188.939 43.13l59.76-.053M204.779 43.116l.013 15.12M191.832 58.248l51.12-.046M204.762 24.741l-.013-15.465M247.242 24.703l-.013-15.465M248.712 58.369l-.013-15.465"/></g></g></svg>